<mxfile host="Electron" agent="Mozilla/5.0 (Macintosh; Intel Mac OS X 10_15_7) AppleWebKit/537.36 (KHTML, like Gecko) draw.io/27.0.5 Chrome/134.0.6998.205 Electron/35.3.0 Safari/537.36" version="27.0.5">
  <diagram name="SAP_Start_L2" id="icKvMTMdYwRn-im4hqiE">
    <mxGraphModel dx="2027" dy="594" grid="1" gridSize="10" guides="1" tooltips="1" connect="1" arrows="1" fold="1" page="1" pageScale="1" pageWidth="1169" pageHeight="827" math="0" shadow="0">
      <root>
        <mxCell id="0" />
        <mxCell id="1" parent="0" />
        <mxCell id="n7TMKBVMU3mKDdDENP5A-1" value="" style="rounded=1;whiteSpace=wrap;html=1;strokeColor=#0070F2;fillColor=#EBF8FF;arcSize=24;absoluteArcSize=1;imageWidth=64;imageHeight=64;strokeWidth=1.5;container=0;" parent="1" vertex="1">
          <mxGeometry x="-1034" y="50" width="780" height="570" as="geometry" />
        </mxCell>
        <mxCell id="n7TMKBVMU3mKDdDENP5A-2" value="&lt;b style=&quot;border-color: var(--border-color); color: rgb(0, 112, 242); font-size: 16px;&quot;&gt;&lt;b style=&quot;border-color: var(--border-color); font-family: arial;&quot;&gt;SAP Start - SAP BTP Solution Diagram&lt;/b&gt;&lt;/b&gt;" style="text;html=1;align=left;verticalAlign=middle;resizable=0;points=[];autosize=1;strokeColor=none;fillColor=none;fontSize=12;fontColor=#1d2d3e;fontFamily=Helvetica;" parent="1" vertex="1">
          <mxGeometry x="-1160" y="10" width="320" height="30" as="geometry" />
        </mxCell>
        <mxCell id="n7TMKBVMU3mKDdDENP5A-3" value="" style="endArrow=none;html=1;strokeColor=#188918;bendable=1;rounded=0;endFill=0;endSize=4;strokeWidth=1.5;startSize=4;startArrow=none;startFill=0;edgeStyle=orthogonalEdgeStyle;exitX=1;exitY=0.75;exitDx=0;exitDy=0;" parent="1" source="n7TMKBVMU3mKDdDENP5A-31" target="n7TMKBVMU3mKDdDENP5A-46" edge="1">
          <mxGeometry width="50" height="50" relative="1" as="geometry">
            <mxPoint x="-454" y="570" as="sourcePoint" />
            <mxPoint x="-374" y="570" as="targetPoint" />
          </mxGeometry>
        </mxCell>
        <mxCell id="n7TMKBVMU3mKDdDENP5A-4" value="Subaccount&lt;div&gt;&lt;font style=&quot;font-size: 12px;&quot;&gt;&lt;span style=&quot;font-weight: normal;&quot;&gt;Multi-Cloud&lt;/span&gt;&lt;/font&gt;&lt;/div&gt;" style="rounded=1;whiteSpace=wrap;html=1;strokeColor=#475E75;fillColor=#ffffff;arcSize=24;absoluteArcSize=1;imageWidth=64;imageHeight=64;strokeWidth=1.5;part=1;verticalAlign=top;align=left;fontSize=16;fontStyle=1;spacingLeft=10;spacingTop=10;" parent="1" vertex="1">
          <mxGeometry x="-1014" y="108" width="740" height="373.55" as="geometry" />
        </mxCell>
        <mxCell id="n7TMKBVMU3mKDdDENP5A-5" value="" style="rounded=1;whiteSpace=wrap;html=1;strokeColor=#0070F2;fillColor=#EBF8FF;arcSize=24;absoluteArcSize=1;imageWidth=64;imageHeight=64;strokeWidth=1.5;container=0;" parent="1" vertex="1">
          <mxGeometry x="-990" y="184" width="340" height="239.16" as="geometry" />
        </mxCell>
        <mxCell id="n7TMKBVMU3mKDdDENP5A-15" style="edgeStyle=elbowEdgeStyle;rounded=0;orthogonalLoop=1;jettySize=auto;html=1;endArrow=blockThin;endFill=1;strokeWidth=1.5;strokeColor=#188918;endSize=4;startSize=4;entryX=0.289;entryY=1.001;entryDx=0;entryDy=0;entryPerimeter=0;" parent="1" target="n7TMKBVMU3mKDdDENP5A-5" edge="1">
          <mxGeometry relative="1" as="geometry">
            <mxPoint x="-891" y="437.14" as="targetPoint" />
            <mxPoint x="-893" y="505.4907462686566" as="sourcePoint" />
          </mxGeometry>
        </mxCell>
        <mxCell id="n7TMKBVMU3mKDdDENP5A-16" value="OIDC" style="rounded=1;whiteSpace=wrap;html=1;strokeColor=#188918;strokeWidth=1.5;arcSize=16;fillColor=#F5FAE5;perimeterSpacing=0;absoluteArcSize=1;fontColor=#188918;fontSize=10;fontStyle=1" parent="1" vertex="1">
          <mxGeometry x="-912" y="456.8880597014926" width="40" height="15.785074626865672" as="geometry" />
        </mxCell>
        <mxCell id="n7TMKBVMU3mKDdDENP5A-19" value="SAP Task&#xa;Center" style="shape=mxgraph.sap.icon;labelPosition=center;verticalLabelPosition=bottom;align=center;verticalAlign=top;strokeWidth=1;strokeColor=#D5DADD;fillColor=#EDEFF0;gradientColor=#FCFCFC;gradientDirection=west;aspect=fixed;SAPIcon=SAP_Task_Center;fontColor=#1D2D3E;" parent="1" vertex="1">
          <mxGeometry x="-524" y="121.455223880597" width="32" height="32" as="geometry" />
        </mxCell>
        <mxCell id="n7TMKBVMU3mKDdDENP5A-20" style="edgeStyle=orthogonalEdgeStyle;rounded=0;orthogonalLoop=1;jettySize=auto;html=1;endArrow=blockThin;endFill=1;strokeWidth=1.5;strokeColor=#0070F2;endSize=4;startSize=4;targetPerimeterSpacing=2;" parent="1" source="n7TMKBVMU3mKDdDENP5A-21" target="n7TMKBVMU3mKDdDENP5A-22" edge="1">
          <mxGeometry relative="1" as="geometry">
            <mxPoint x="-490" y="263.52089552238806" as="targetPoint" />
            <Array as="points">
              <mxPoint x="-556" y="243.78955223880598" />
              <mxPoint x="-556" y="243.78955223880598" />
            </Array>
          </mxGeometry>
        </mxCell>
        <mxCell id="n7TMKBVMU3mKDdDENP5A-21" value="Deploy custom&#xa;and default apps" style="shape=image;editableCssRules=.*;verticalLabelPosition=middle;labelBackgroundColor=none;verticalAlign=middle;aspect=fixed;imageAspect=0;image=data:image/svg+xml,PHN2ZyB4bWxucz0iaHR0cDovL3d3dy53My5vcmcvMjAwMC9zdmciIHZpZXdCb3g9Ii0wLjUgLTAuNSAyNS4yNjYgMjgiIGhlaWdodD0iMjgiIHdpZHRoPSIyNS4yNjYiPiYjeGE7CSAgPHN0eWxlIHR5cGU9InRleHQvY3NzIj4uc3QwIHsgc3RvcC1jb2xvcjogcmdiKDM1LCAxNDksIDI1NSk7IH0gLnN0MSB7IHN0b3AtY29sb3I6IHJnYigwLCA4NywgMjEwKTsgfSA8L3N0eWxlPiYjeGE7CTxkZWZzPiYjeGE7CQk8bGluZWFyR3JhZGllbnQgZ3JhZGllbnRVbml0cz0idXNlclNwYWNlT25Vc2UiIHkyPSIyMy4xMTIiIHgyPSIyMy4xMzYiIHkxPSIzLjQ3NCIgeDE9IjEuNzkxIiBpZD0iQSI+JiN4YTsJCQk8c3RvcCBjbGFzcz0ic3QwIi8+JiN4YTsJCQk8c3RvcCBjbGFzcz0ic3QxIiBvZmZzZXQ9IjEiLz4mI3hhOwkJPC9saW5lYXJHcmFkaWVudD4mI3hhOwk8L2RlZnM+JiN4YTsJPHBhdGggZmlsbD0idXJsKCNBKSIgZD0iTTI0LjE2NCA2LjY2NGMuNDAxLjI1NS42MDIuNTgzLjYwMi45ODQgMCAuMTA5LS4wMTguMjAxLS4wNTUuMjczdjExLjE1NkExLjM5IDEuMzkgMCAwIDEgMjQgMjAuMzM2bC0xMS4xMDIgNi45NDVjLS4yNTUuMTQ2LS41MjkuMjE5LS44Mi4yMTktLjMyOCAwLS41NjUtLjA3My0uNzExLS4yMTlMLjIxMSAyMC4zMzZhMS43NSAxLjc1IDAgMCAxLS41NDctLjYwMWMtLjEwOS0uMjU1LS4xNjQtLjQ3NC0uMTY0LS42NTZWNy45MjJhMS4zOSAxLjM5IDAgMCAxIC43MTEtMS4yNThsNS41NzgtMy41Yy4yOTItLjEwOS41NjUtLjE2NC44Mi0uMTY0cy40OTIuMDU1LjcxMS4xNjRsMTEuMTU2IDdjLjE4Mi4wNzMuMzI4LjIzNy40MzguNDkyLjE0Ni4yMTkuMjE5LjQxOS4yMTkuNjAydjQuODY3YzAgLjk0OC0uNDU2IDEuNDIyLTEuMzY3IDEuNDIyLS40MDEgMC0uNzQ3LS4xMjgtMS4wMzktLjM4My0uMjU1LS4yNTUtLjM4My0uNjAyLS4zODMtMS4wMzl2LTQuMDQ3TDYuNjA5IDUuOTUzbC00LjE1NiAyLjY4djkuNjI1bDkuNzM0IDYuMTI1IDkuNzM0LTYuMTI1VjguNjMzTDExLjQ3NyAyLjA3Yy0uNDM3LS4yOTItLjY1Ni0uNjc0LS42NTYtMS4xNDggMC0uMTgyLjA3My0uNDU2LjIxOS0uODIuMzI4LS40MDEuNzQ3LS42MDIgMS4yNTgtLjYwMi4yOTIgMCAuNTI5LjA3My43MTEuMjE5ek0xMC4yNzMgMTcuMzgzYy40MzguMjU1LjY1Ni42MzguNjU2IDEuMTQ4IDAgLjI5Mi0uMDczLjU2NS0uMjE5LjgyLS4yOTIuNDAxLS43MTEuNjAyLTEuMjU4LjYwMmExLjU3IDEuNTcgMCAwIDEtLjcxMS0uMTY0bC0yLjc4OS0xLjY5NWMtLjQzNy0uMjkyLS42NTYtLjY1Ni0uNjU2LTEuMDk0IDAtLjI5Mi4wOTEtLjU4My4yNzMtLjg3NS4zMjgtLjQwMS43MjktLjYwMiAxLjIwMy0uNjAyLjI5MiAwIC41MjkuMDczLjcxMS4yMTl6Ii8+JiN4YTs8L3N2Zz4=;labelPosition=right;align=left;fontSize=10;fontColor=#556B82;" parent="1" vertex="1">
          <mxGeometry x="-568.5" y="213.20597014925374" width="24.66417910447762" height="27.623880597014928" as="geometry" />
        </mxCell>
        <mxCell id="n7TMKBVMU3mKDdDENP5A-22" value="HTML5 App&#xa;Repository" style="shape=mxgraph.sap.icon;labelPosition=center;verticalLabelPosition=bottom;align=center;verticalAlign=top;strokeWidth=1;strokeColor=#D5DADD;fillColor=#EDEFF0;gradientColor=#FCFCFC;gradientDirection=west;aspect=fixed;SAPIcon=HTML5_App_Repository;fontColor=#1D2D3E;" parent="1" vertex="1">
          <mxGeometry x="-572" y="255.6283582089552" width="32" height="32" as="geometry" />
        </mxCell>
        <mxCell id="n7TMKBVMU3mKDdDENP5A-23" value="Destination" style="shape=mxgraph.sap.icon;labelPosition=center;verticalLabelPosition=bottom;align=center;verticalAlign=top;strokeWidth=1;strokeColor=#D5DADD;fillColor=#EDEFF0;gradientColor=#FCFCFC;gradientDirection=west;aspect=fixed;SAPIcon=SAP_Destination_service;fontColor=#1D2D3E;" parent="1" vertex="1">
          <mxGeometry x="-514" y="334.55373134328363" width="32" height="32" as="geometry" />
        </mxCell>
        <mxCell id="n7TMKBVMU3mKDdDENP5A-24" style="edgeStyle=orthogonalEdgeStyle;rounded=0;orthogonalLoop=1;jettySize=auto;html=1;strokeColor=#0070F2;endArrow=none;endFill=0;strokeWidth=1.5;sourcePerimeterSpacing=50;targetPerimeterSpacing=5;" parent="1" target="n7TMKBVMU3mKDdDENP5A-21" edge="1">
          <mxGeometry relative="1" as="geometry">
            <mxPoint x="-510" y="190.51492537313436" as="sourcePoint" />
            <mxPoint x="-546" y="224.05820895522385" as="targetPoint" />
            <Array as="points">
              <mxPoint x="-510" y="204.32686567164183" />
              <mxPoint x="-556" y="204.32686567164183" />
            </Array>
          </mxGeometry>
        </mxCell>
        <mxCell id="n7TMKBVMU3mKDdDENP5A-25" value="read and display" style="edgeStyle=elbowEdgeStyle;rounded=0;orthogonalLoop=1;jettySize=auto;html=1;strokeColor=#475E75;endArrow=blockThin;endFill=1;strokeWidth=1.5;sourcePerimeterSpacing=0;targetPerimeterSpacing=0;endSize=4;startSize=4;elbow=vertical;verticalAlign=bottom;fontSize=10;labelBackgroundColor=none;fontColor=#556B82;" parent="1" edge="1">
          <mxGeometry relative="1" as="geometry">
            <mxPoint x="-650" y="272.4000000000001" as="sourcePoint" />
            <mxPoint x="-572" y="272.59731343283556" as="targetPoint" />
          </mxGeometry>
        </mxCell>
        <mxCell id="n7TMKBVMU3mKDdDENP5A-26" style="edgeStyle=elbowEdgeStyle;rounded=0;orthogonalLoop=1;jettySize=auto;html=1;strokeColor=#475E75;endArrow=blockThin;endFill=1;strokeWidth=1.5;sourcePerimeterSpacing=0;targetPerimeterSpacing=0;endSize=4;startSize=4;elbow=vertical;" parent="1" edge="1">
          <mxGeometry relative="1" as="geometry">
            <mxPoint x="-650" y="342.09537313432827" as="sourcePoint" />
            <mxPoint x="-514" y="341.9958064516129" as="targetPoint" />
          </mxGeometry>
        </mxCell>
        <mxCell id="n7TMKBVMU3mKDdDENP5A-27" value="Joule" style="shape=mxgraph.sap.icon;labelPosition=center;verticalLabelPosition=bottom;align=center;verticalAlign=top;strokeWidth=1;strokeColor=#D5DADD;fillColor=#EDEFF0;gradientColor=#FCFCFC;gradientDirection=west;aspect=fixed;SAPIcon=SAP_Digital_Assistant_Service" parent="1" vertex="1">
          <mxGeometry x="-614" y="405.57313432835815" width="32" height="32" as="geometry" />
        </mxCell>
        <mxCell id="n7TMKBVMU3mKDdDENP5A-29" style="edgeStyle=elbowEdgeStyle;rounded=0;orthogonalLoop=1;jettySize=auto;html=1;strokeColor=#475E75;endArrow=blockThin;endFill=1;strokeWidth=1.5;sourcePerimeterSpacing=0;targetPerimeterSpacing=0;endSize=4;startSize=4;elbow=vertical;" parent="1" edge="1">
          <mxGeometry relative="1" as="geometry">
            <mxPoint x="-650" y="421.1348656716418" as="sourcePoint" />
            <mxPoint x="-614" y="421.3716417910448" as="targetPoint" />
          </mxGeometry>
        </mxCell>
        <mxCell id="n7TMKBVMU3mKDdDENP5A-31" value="SAP Cloud&#xa;Identity&#xa;Services" style="strokeColor=#0070F2;shadow=0;strokeWidth=1.5;rounded=1;absoluteArcSize=1;arcSize=20;align=left;fontSize=16;fontStyle=1;spacingLeft=15;spacing=0;container=1;collapsible=0;fontColor=#1D2D3E;" parent="1" vertex="1">
          <mxGeometry x="-1014" y="492.4" width="360" height="99.6" as="geometry" />
        </mxCell>
        <mxCell id="n7TMKBVMU3mKDdDENP5A-79" value="Identity&#xa;Directory" style="shape=image;verticalLabelPosition=bottom;labelBackgroundColor=default;verticalAlign=top;aspect=fixed;imageAspect=0;image=data:image/svg+xml,PHN2ZyB4bWxucz0iaHR0cDovL3d3dy53My5vcmcvMjAwMC9zdmciIGZpbGw9Im5vbmUiIHZpZXdCb3g9IjAgMCAxNiAxNiIgaGVpZ2h0PSIxNiIgd2lkdGg9IjE2Ij4mI3hhOzxjaXJjbGUgc3Ryb2tlLXdpZHRoPSIwLjI4NTcwOCIgc3Ryb2tlPSIjRDVEQUREIiBmaWxsPSJ1cmwoI3BhaW50MF9saW5lYXJfMzg5MF8yMTUyMCkiIHI9IjcuODU2OTYiIGN5PSI3Ljk5Nzg2IiBjeD0iNy45OTY4OSIvPiYjeGE7PGcgY2xpcC1wYXRoPSJ1cmwoI2NsaXAwXzM4OTBfMjE1MjApIj4mI3hhOzxwYXRoIGZpbGw9InVybCgjcGFpbnQxX2xpbmVhcl8zODkwXzIxNTIwKSIgZD0iTTQuNjg1NDQgMy43MTg5N0M0LjQxMzUxIDMuODI2NjkgNC4xNTU0IDMuOTczMiAzLjk1NjYzIDQuMTc1NkMzLjgyNjY3IDQuMzA3OTQgMy41OTcxNyA0LjU2MzU2IDMuNTk3MTcgNS4wNDU5NVY5LjcyMzMyQzMuNTk3NSAxMC41NDAyIDQuMjAwMzUgMTAuOTgxNSA0LjczNTk3IDExLjIwMDJDNS4zMDI3NCAxMS40MzE3IDYuMDIyOTMgMTEuNTIyNSA2LjcwOTUxIDExLjUyM0M2Ljc5OTU3IDExLjUyMyA2LjkzOTA4IDExLjUwNiA3LjA4NDQzIDExLjQ4NTRDNy4zNjE3MiAxMS40NDYzIDcuNTc1MjkgMTEuMjAzMiA3LjU3NTI5IDEwLjkyMzFDNy41NzUyOSAxMC42MDU2IDcuMzAzODEgMTAuMzcyOSA2Ljk4ODk1IDEwLjQxNDNDNi44ODA4MSAxMC40Mjg1IDYuNzgxMzIgMTAuNDM4NyA2LjcxMDEgMTAuNDM4N0M2LjA3OTEgMTAuNDM4MiA1LjQ4Mzc0IDEwLjM1MjIgNS4wNjQzNyAxMC4xODA5QzQuNjEzOTggOS45OTcwMiA0LjU2MDI3IDkuODA5OSA0LjU2MDI3IDkuNzIyNjVMNC41NTk3MyA5LjA1NzI2QzQuNzMyNzYgOS4xMTYxOCA0LjkxNDMzIDkuMTY0NTUgNS4wOTc4IDkuMjA0MTZDNS41OTkyMiA5LjMxMjQxIDYuMTY3NTkgOS4zNjYwNyA2LjcyODkxIDkuMzY3MzlDNi44MjA0MyA5LjM2NzYxIDYuODk5MTkgOS4zNjkwMSA2Ljk5MDcyIDkuMzY2NDJDNy4xNzE2OSA5LjM2MTMxIDcuMzEyMTggOS4yMTA2NSA3LjMxMjE4IDkuMDI5NjFDNy4zMTIxOCA4LjgzMDA1IDcuMTQyNjkgOC42NzMwOCA2Ljk0MzE5IDguNjc4MTNDNi44Njg0NiA4LjY4MDAzIDYuODA2MjQgOC42NzgzMSA2LjczMDk0IDguNjc4MTRDNi4yMTg0NyA4LjY3NjkyIDUuNzExMyA4LjYyNzU5IDUuMjc5MTggOC41MzQzQzQuOTc3NjYgOC40NjkyIDQuNzM1MTggOC4zODczNyA0LjU1NzQyIDguMjk5OTdMNC41NTYzIDcuNDg3OTRDNC43MzAzNiA3LjU0NzM5IDQuOTEzMTIgNy41OTYxNCA1LjA5NzggNy42MzYwMUM1LjU5OTIyIDcuNzQ0MjYgNi4xNjc1OSA3Ljc5NzkyIDYuNzI4OTEgNy43OTkyNUM3LjE5MDg2IDcuODAwMzQgNy42NTcwOSA3Ljc2NjAxIDguMDg2MDQgNy42OTM2M0M4LjU0MDMgNy42MzYwMSA4LjQ5MzQ0IDYuOTQyNjYgOC4wODYwNCA3LjAyMjgyQzcuNjc4NjQgNy4xMDI5OSA3LjIwODI5IDcuMTQzNjQgNi43MzA5NCA3LjE0MjUxQzYuMjE4NDcgNy4xNDEzIDUuNzExMyA3LjA5MTk3IDUuMjc5MTggNi45OTg2OEM0Ljk3NTcyIDYuOTMzMTYgNC43MzIwNyA2Ljg1MDcgNC41NTQwMSA2Ljc2MjY3TDQuNTUyNjcgNS45MDU4NEM0LjU5OTE2IDUuOTI2NzUgNC42NDYzMSA1Ljk0NjQgNC42OTM4NiA1Ljk2NDg4QzUuMjM5ODYgNi4xNzcxNyA1Ljk1NTIgNi4yODAxNCA2LjcwOTgxIDYuMjgwMTRDNy40NzA3MSA2LjI4MDE0IDguMTkzMDYgNi4xNzU0NSA4Ljc0MzE1IDUuOTU5NjdDOC43OTA2IDUuOTQxMDYgOC44Mzc2NSA1LjkyMTI4IDguODg0MDYgNS45MDAyNUw4Ljg4NDA2IDYuNTk0NzJMOC44ODE5NiA2LjM1ODk3QzguODgxNzcgNi41Njc0NCA5LjA1MDcyIDYuNzM2NTMgOS4yNTkxOSA2LjczNjUzSDkuMzY0NTVDOS42MzEwMyA2LjczNjUzIDkuODQ3MDUgNi41MjA1MSA5Ljg0NzA0IDYuMjU0MDNMOS44NDcwMSA1LjA0NTk1QzkuODQ3MDEgNC42NzY2IDkuNjgzOTcgNC4zODMxOCA5LjQ3NzM2IDQuMTc0MzFDOS4yNzcxNiAzLjk3MTkxIDkuMDE2NjYgMy44MjU3NiA4Ljc0MzAxIDMuNzE4NDFDOC4xOTI5MSAzLjUwMjY0IDcuNDcwNTYgMy4zOTc5NSA2LjcwOTY2IDMuMzk3OTVDNS45NDg3NiAzLjM5Nzk1IDUuMjMxNTYgMy41MDI2MyA0LjY4NTQ0IDMuNzE4OTdaIiBjbGlwLXJ1bGU9ImV2ZW5vZGQiIGZpbGwtcnVsZT0iZXZlbm9kZCIvPiYjeGE7PHBhdGggZmlsbD0idXJsKCNwYWludDJfbGluZWFyXzM4OTBfMjE1MjApIiBkPSJNMTAuNTUwMSA3LjQzNDQyQzEwLjU4NzQgNy4xOTU3IDEwLjgxMTIgNy4wMzI0NCAxMS4wNDk5IDcuMDY5NzdDMTEuOTA2NCA3LjIwMzcyIDEyLjc0ODggNy42MTA5IDEzLjQ0MTYgOC4zMDc1NkMxMy42MTIgOC40Nzg4OSAxMy42MTEzIDguNzU1OSAxMy40Mzk5IDguOTI2MjhDMTMuMjY4NiA5LjA5NjY2IDEyLjk5MTYgOS4wOTU5IDEyLjgyMTIgOC45MjQ1OEMxMi4yNjA2IDguMzYwODkgMTEuNTg4NiA4LjAzOTY1IDEwLjkxNDcgNy45MzQyNkMxMC42NzYgNy44OTY5MyAxMC41MTI4IDcuNjczMTQgMTAuNTUwMSA3LjQzNDQyWiIgY2xpcC1ydWxlPSJldmVub2RkIiBmaWxsLXJ1bGU9ImV2ZW5vZGQiLz4mI3hhOzxwYXRoIGZpbGw9InVybCgjcGFpbnQzX2xpbmVhcl8zODkwXzIxNTIwKSIgZD0iTTEwLjkzMzcgMTEuMTcwNEMxMC45MzM3IDEwLjkyODggMTAuNzM3OSAxMC43MzI5IDEwLjQ5NjIgMTAuNzMyOUMxMC4yNTQ2IDEwLjczMjkgMTAuMDU4NyAxMC45Mjg4IDEwLjA1ODcgMTEuMTcwNEMxMC4wNTg3IDExLjUxNCAxMC4xNTA4IDExLjg4MDIgMTAuMzM0MiAxMi4xNzY0QzEwLjM1MzEgMTIuMjA3IDEwLjM3MjIgMTIuMjM3NCAxMC4zOTUxIDEyLjI2NDlDMTAuNTM3NCAxMi40MzUgMTAuNzk0NiAxMi40NzM2IDEwLjk4MDMgMTIuMzQ1NEMxMS4xNzggMTIuMjA4OCAxMS4yMjg0IDExLjkzODUgMTEuMDkzOCAxMS43NEMxMC45ODg2IDExLjU3MzggMTAuOTMzNyAxMS4zNjU3IDEwLjkzMzcgMTEuMTcwNFoiLz4mI3hhOzxwYXRoIGZpbGw9InVybCgjcGFpbnQ0X2xpbmVhcl8zODkwXzIxNTIwKSIgZD0iTTEzLjI4NTYgMTAuOTAwM0MxMy4zMzE2IDkuNzc0MDMgMTIuNDY0NCA4LjgyOTkxIDExLjQ1NDkgOC40NTA4MUMxMC40MDkzIDguMDU4MTMgOS4xMDEzMSA4LjIxOTk5IDguMTk2MTIgOS4zOTc2OEM4LjA0ODg3IDkuNTg5MjUgOC4wODQ4IDkuODYzOTIgOC4yNzYzNyAxMC4wMTEyQzguNDY3OTUgMTAuMTU4NCA4Ljc0MjYyIDEwLjEyMjUgOC44ODk4NyA5LjkzMDkxQzkuNTI3MDIgOS4xMDE5NiAxMC40MDc4IDguOTkyMjQgMTEuMTQ3MyA5LjI2OTk1QzExLjkyMyA5LjU2MTI2IDEyLjQzNzMgMTAuMjI5NSAxMi40MTEzIDEwLjg2NDVDMTIuNDA2NSAxMC45ODI1IDEyLjM2NjcgMTEuMDQyNCAxMi4zMzYyIDExLjA3MjJDMTIuMzAxOCAxMS4xMDU5IDEyLjI1NzUgMTEuMTIyOSAxMi4yMTUxIDExLjEyMzdDMTIuMTczNiAxMS4xMjQ1IDEyLjE0MjUgMTEuMTEwMyAxMi4xMjE4IDExLjA4OTRDMTIuMTA0MSAxMS4wNzE3IDEyLjA2MzIgMTEuMDE4IDEyLjA2MzIgMTAuODgyNEMxMi4wNjMyIDEwLjUwODIgMTEuODI1NyAxMC4xMDcxIDExLjQ4MTMgOS44NDg2QzExLjExMDQgOS41NzAyMyAxMC41ODU2IDkuNDI4MDkgOS45Njg5NSA5LjU5ODI1TDkuOTU5OTIgOS42MDA3NUw5Ljk1MSA5LjYwMzYyQzkuMzYwNDcgOS43OTQxMiA4Ljk4Mzc5IDEwLjM0NjEgOC44OTkxNiAxMC45OTExQzguODEzNjkgMTEuNjQyNCA5LjAxMzc5IDEyLjQwODYgOS41NjU4NyAxMy4xNTM2QzkuNzA5NzMgMTMuMzQ3OCA5Ljk4MzczIDEzLjM4ODUgMTAuMTc3OSAxMy4yNDQ3QzEwLjM3MiAxMy4xMDA4IDEwLjQxMjcgMTIuODI2OCAxMC4yNjg5IDEyLjYzMjdDOS44MjU0NSAxMi4wMzQzIDkuNzE2MDcgMTEuNDkwOSA5Ljc2NjcyIDExLjEwNDlDOS44MTc1MSAxMC43MTc5IDEwLjAxNzcgMTAuNTA1NSAxMC4yMTE2IDEwLjQzOUMxMC41NTggMTAuMzQ2MyAxMC44MDAzIDEwLjQzMTUgMTAuOTU2IDEwLjU0ODRDMTEuMDM5NSAxMC42MTEgMTEuMTAxNCAxMC42ODU1IDExLjE0MDkgMTAuNzU0OUMxMS4xODMgMTAuODI2OSAxMS4xODY1IDEwLjg2MzUgMTEuMTg4OSAxMC45MjgzQzExLjE5ODQgMTEuMjM3OCAxMS4zMDUyIDExLjUwOTMgMTEuNTAxNSAxMS43MDY2QzExLjcwNDQgMTEuOTEwNSAxMS45NzIzIDEyLjAwMzYgMTIuMjMyIDExLjk5ODZDMTIuNzY0NiAxMS45ODgzIDEzLjI1ODIgMTEuNTcyMyAxMy4yODU2IDEwLjkwMDNaIi8+JiN4YTs8L2c+JiN4YTs8ZGVmcz4mI3hhOzxsaW5lYXJHcmFkaWVudCBncmFkaWVudFVuaXRzPSJ1c2VyU3BhY2VPblVzZSIgeTI9IjE0Ljc0NTgiIHgyPSIxMy42ODQ5IiB5MT0iMi4yNjg5NCIgeDE9IjEuNDQ3OTkiIGlkPSJwYWludDBfbGluZWFyXzM4OTBfMjE1MjAiPiYjeGE7PHN0b3Agc3RvcC1jb2xvcj0id2hpdGUiLz4mI3hhOzxzdG9wIHN0b3AtY29sb3I9IiNFQUVDRUUiIG9mZnNldD0iMSIvPiYjeGE7PC9saW5lYXJHcmFkaWVudD4mI3hhOzxsaW5lYXJHcmFkaWVudCBncmFkaWVudFVuaXRzPSJ1c2VyU3BhY2VPblVzZSIgeTI9IjguODQ0NTUiIHgyPSIxMC4wMzMzIiB5MT0iNC42MTI5OSIgeDE9IjQuNTM0MDUiIGlkPSJwYWludDFfbGluZWFyXzM4OTBfMjE1MjAiPiYjeGE7PHN0b3Agc3RvcC1jb2xvcj0iIzAxOTVGRiIvPiYjeGE7PHN0b3Agc3RvcC1jb2xvcj0iIzExNDdFOSIgb2Zmc2V0PSIwLjk5MTAyOCIvPiYjeGE7PC9saW5lYXJHcmFkaWVudD4mI3hhOzxsaW5lYXJHcmFkaWVudCBncmFkaWVudFVuaXRzPSJ1c2VyU3BhY2VPblVzZSIgeTI9IjExLjc5MjgiIHgyPSIxMy4yNjAyIiB5MT0iNy45ODYzNSIgeDE9IjguOTEzMjEiIGlkPSJwYWludDJfbGluZWFyXzM4OTBfMjE1MjAiPiYjeGE7PHN0b3Agc3RvcC1jb2xvcj0iIzEzNDhGRiIvPiYjeGE7PHN0b3Agc3RvcC1jb2xvcj0iIzA2MjM4RCIgb2Zmc2V0PSIxIi8+JiN4YTs8L2xpbmVhckdyYWRpZW50PiYjeGE7PGxpbmVhckdyYWRpZW50IGdyYWRpZW50VW5pdHM9InVzZXJTcGFjZU9uVXNlIiB5Mj0iMTEuNzkyOCIgeDI9IjEzLjI2MDIiIHkxPSI3Ljk4NjM1IiB4MT0iOC45MTMyMSIgaWQ9InBhaW50M19saW5lYXJfMzg5MF8yMTUyMCI+JiN4YTs8c3RvcCBzdG9wLWNvbG9yPSIjMTM0OEZGIi8+JiN4YTs8c3RvcCBzdG9wLWNvbG9yPSIjMDYyMzhEIiBvZmZzZXQ9IjEiLz4mI3hhOzwvbGluZWFyR3JhZGllbnQ+JiN4YTs8bGluZWFyR3JhZGllbnQgZ3JhZGllbnRVbml0cz0idXNlclNwYWNlT25Vc2UiIHkyPSIxMS43OTI4IiB4Mj0iMTMuMjYwMiIgeTE9IjcuOTg2MzUiIHgxPSI4LjkxMzIxIiBpZD0icGFpbnQ0X2xpbmVhcl8zODkwXzIxNTIwIj4mI3hhOzxzdG9wIHN0b3AtY29sb3I9IiMxMzQ4RkYiLz4mI3hhOzxzdG9wIHN0b3AtY29sb3I9IiMwNjIzOEQiIG9mZnNldD0iMSIvPiYjeGE7PC9saW5lYXJHcmFkaWVudD4mI3hhOzxjbGlwUGF0aCBpZD0iY2xpcDBfMzg5MF8yMTUyMCI+JiN4YTs8cmVjdCB0cmFuc2Zvcm09InRyYW5zbGF0ZSgzLjU5NzE3IDMuMzk3OTUpIiBmaWxsPSJ3aGl0ZSIgaGVpZ2h0PSIxMCIgd2lkdGg9IjEwIi8+JiN4YTs8L2NsaXBQYXRoPiYjeGE7PC9kZWZzPiYjeGE7PC9zdmc+;fontColor=#1D2D3E;" parent="n7TMKBVMU3mKDdDENP5A-31" vertex="1">
          <mxGeometry x="130" y="18.807206306238527" width="32" height="32" as="geometry" />
        </mxCell>
        <mxCell id="n7TMKBVMU3mKDdDENP5A-80" value="Identity&#xa;Authentication" style="shape=image;verticalLabelPosition=bottom;labelBackgroundColor=default;verticalAlign=top;aspect=fixed;imageAspect=0;image=data:image/svg+xml,PHN2ZyB4bWxucz0iaHR0cDovL3d3dy53My5vcmcvMjAwMC9zdmciIGZpbGw9Im5vbmUiIHZpZXdCb3g9IjAgMCAxNiAxNiIgaGVpZ2h0PSIxNiIgd2lkdGg9IjE2Ij4mI3hhOzxjaXJjbGUgc3Ryb2tlLXdpZHRoPSIwLjI4NTcwOCIgc3Ryb2tlPSIjRDVEQUREIiBmaWxsPSJ1cmwoI3BhaW50MF9saW5lYXJfMzg5MF8yMTUxMykiIHI9IjcuODU2OTYiIGN5PSI3Ljk5Nzg2IiBjeD0iNy45OTkzMyIvPiYjeGE7PHBhdGggZmlsbD0idXJsKCNwYWludDFfbGluZWFyXzM4OTBfMjE1MTMpIiBkPSJNNy4xNzQ4NCAzLjQxNDlMMTAuMTkzNiA0LjI4NTYxSDEwLjE5MjhDMTAuNDA2NSA0LjM0MjkgMTAuNTEzMyA0LjQ4NDkzIDEwLjUxMzMgNC43MTI0OVY2LjIzMDQ0QzEwLjAxNjEgNi4zNzgwNSA5LjY1MjU1IDYuNzY4MjQgOS41NTU4MyA3LjQ0NTUzQzkuNTU1ODMgNy40NDU1MyA5LjI2OTcxIDcuNDYxODcgOC42MzQ4NiA3LjgwMTE2QzggOC4xNDA0NCA3LjU2MzcxIDguNjkwNTQgNy41NjM3MSA4LjY5MDU0QzcuMTM3NDggOS4xNzM1MSA3LjAzMzEyIDkuNDk2MjYgNy4xODA2NiAxMC4yMDMxQzcuMzcwMDQgMTAuNjQzNyA3LjUzMjQ4IDEwLjgxOTggNy45MDEzMSAxMS4wMzQxQzcuOTAxMzEgMTEuMDM0MSA3Ljg1MTMxIDExLjI5OTYgNy45MDI2NCAxMS43Mzc3QzcuNzU0NzYgMTEuODI3OSA3LjYyNDQgMTEuOTAxNCA3LjUxMTY3IDExLjk1ODZDNy4zNDMwNiAxMi4wNDQyIDcuMjQ3MzkgMTIuMDkyNiA3LjIyNTA2IDEyLjEwMzlDNy4xNTc3IDEyLjEyNjkgNy4xMDE0OSAxMi4xMzgyIDcuMDU2NDUgMTIuMTM4MkM3LjAxMTQgMTIuMTM4MiA2Ljk1NTIgMTIuMTI2NSA2Ljg4NzgzIDEyLjEwMzlDNi44NjUxMSAxMi4wOTI2IDYuNzY5ODQgMTIuMDQ3IDYuNjAxMjIgMTEuOTY3NUM2LjQzMjYxIDExLjg4NzYgNi4yMjQ1MyAxMS43NjU0IDUuOTc3MzggMTEuNjAwM0M1LjczMDI0IDExLjQzNTMgNS40Njg3NCAxMS4yMzMyIDUuMTkzMjkgMTAuOTk0M0M0LjkxNzg1IDEwLjc1NTQgNC42NjE5MyAxMC40NzY2IDQuNDI1OTUgMTAuMTU3OUM0LjE4OTU3IDkuODM5NTQgMy45OTMwNSA5LjQ4MTI1IDMuODM1NTkgOS4wODI2MUMzLjY3ODE0IDguNjg0MzcgMy41OTk2MSA4LjI0NjE5IDMuNTk5NjEgNy43NjgwNlY0LjcxMjQ5QzMuNTk5NjEgNC40ODQ5MyAzLjcwNjQ0IDQuMzQyNSAzLjkyMDEgNC4yODU2MUw2LjkzODg1IDMuNDE0OUM3LjAwNjIyIDMuMzkyMyA3LjA4NDc1IDMuMzkyMyA3LjE3NDg0IDMuNDE0OVoiLz4mI3hhOzxwYXRoIGZpbGw9InVybCgjcGFpbnQyX2xpbmVhcl8zODkwXzIxNTEzKSIgZD0iTTEwLjU1MjUgNy41MTg4OUMxMC41ODk5IDcuMjgwMTcgMTAuODEzNiA3LjExNjkxIDExLjA1MjQgNy4xNTQyNEMxMS45MDg5IDcuMjg4MTkgMTIuNzUxMiA3LjY5NTM3IDEzLjQ0NDEgOC4zOTIwNEMxMy42MTQ1IDguNTYzMzYgMTMuNjEzNyA4Ljg0MDM3IDEzLjQ0MjQgOS4wMTA3NUMxMy4yNzExIDkuMTgxMTQgMTIuOTk0MSA5LjE4MDM3IDEyLjgyMzcgOS4wMDkwNUMxMi4yNjMxIDguNDQ1MzYgMTEuNTkxMSA4LjEyNDEyIDEwLjkxNzIgOC4wMTg3M0MxMC42Nzg1IDcuOTgxNCAxMC41MTUyIDcuNzU3NjEgMTAuNTUyNSA3LjUxODg5WiIgY2xpcC1ydWxlPSJldmVub2RkIiBmaWxsLXJ1bGU9ImV2ZW5vZGQiLz4mI3hhOzxwYXRoIGZpbGw9InVybCgjcGFpbnQzX2xpbmVhcl8zODkwXzIxNTEzKSIgZD0iTTEwLjkzNjIgMTEuMjU0OUMxMC45MzYyIDExLjAxMzMgMTAuNzQwMyAxMC44MTc0IDEwLjQ5ODcgMTAuODE3NEMxMC4yNTcxIDEwLjgxNzQgMTAuMDYxMiAxMS4wMTMzIDEwLjA2MTIgMTEuMjU0OUMxMC4wNjEyIDExLjU5ODUgMTAuMTUzMiAxMS45NjQ2IDEwLjMzNjYgMTIuMjYwOUMxMC4zNTU1IDEyLjI5MTQgMTAuMzc0NiAxMi4zMjE5IDEwLjM5NzYgMTIuMzQ5M0MxMC41Mzk4IDEyLjUxOTUgMTAuNzk3IDEyLjU1ODEgMTAuOTgyNyAxMi40Mjk4QzExLjE4MDUgMTIuMjkzMiAxMS4yMzA4IDEyLjAyMjkgMTEuMDk2MiAxMS44MjQ0QzEwLjk5MSAxMS42NTgzIDEwLjkzNjIgMTEuNDUwMiAxMC45MzYyIDExLjI1NDlaIi8+JiN4YTs8cGF0aCBmaWxsPSJ1cmwoI3BhaW50NF9saW5lYXJfMzg5MF8yMTUxMykiIGQ9Ik0xMy4yODggMTAuOTg0N0MxMy4zMzQxIDkuODU4NSAxMi40NjY4IDguOTE0MzggMTEuNDU3MyA4LjUzNTI5QzEwLjQxMTcgOC4xNDI2IDkuMTAzNzUgOC4zMDQ0NiA4LjE5ODU2IDkuNDgyMTVDOC4wNTEzMSA5LjY3MzcyIDguMDg3MjQgOS45NDgzOSA4LjI3ODgyIDEwLjA5NTZDOC40NzAzOSAxMC4yNDI5IDguNzQ1MDYgMTAuMjA3IDguODkyMzEgMTAuMDE1NEM5LjUyOTQ2IDkuMTg2NDMgMTAuNDEwMiA5LjA3NjcxIDExLjE0OTcgOS4zNTQ0M0MxMS45MjU0IDkuNjQ1NzMgMTIuNDM5NyAxMC4zMTQgMTIuNDEzOCAxMC45NDlDMTIuNDA5IDExLjA2NyAxMi4zNjkyIDExLjEyNjkgMTIuMzM4NiAxMS4xNTY3QzEyLjMwNDMgMTEuMTkwNCAxMi4yNTk5IDExLjIwNzQgMTIuMjE3NiAxMS4yMDgyQzEyLjE3NjEgMTEuMjA5IDEyLjE0NSAxMS4xOTQ3IDEyLjEyNDIgMTEuMTczOUMxMi4xMDY2IDExLjE1NjEgMTIuMDY1NiAxMS4xMDI0IDEyLjA2NTYgMTAuOTY2OUMxMi4wNjU2IDEwLjU5MjYgMTEuODI4MiAxMC4xOTE2IDExLjQ4MzcgOS45MzMwOEMxMS4xMTI4IDkuNjU0NzEgMTAuNTg4MSA5LjUxMjU3IDkuOTcxMzkgOS42ODI3M0w5Ljk2MjM2IDkuNjg1MjJMOS45NTM0NCA5LjY4ODA5QzkuMzYyOTEgOS44Nzg1OSA4Ljk4NjIzIDEwLjQzMDYgOC45MDE2IDExLjA3NTVDOC44MTYxMyAxMS43MjY5IDkuMDE2MjMgMTIuNDkzMSA5LjU2ODMxIDEzLjIzODFDOS43MTIxNyAxMy40MzIyIDkuOTg2MTcgMTMuNDczIDEwLjE4MDMgMTMuMzI5MUMxMC4zNzQ0IDEzLjE4NTMgMTAuNDE1MiAxMi45MTEzIDEwLjI3MTMgMTIuNzE3MUM5LjgyNzkgMTIuMTE4OCA5LjcxODUyIDExLjU3NTMgOS43NjkxNiAxMS4xODk0QzkuODE5OTUgMTAuODAyNCAxMC4wMjAxIDEwLjU5IDEwLjIxNCAxMC41MjM1QzEwLjU2MDUgMTAuNDMwOCAxMC44MDI4IDEwLjUxNiAxMC45NTg1IDEwLjYzMjlDMTEuMDQxOSAxMC42OTU1IDExLjEwMzkgMTAuNzcgMTEuMTQzNCAxMC44Mzk0QzExLjE4NTQgMTAuOTExNCAxMS4xODg5IDEwLjk0OCAxMS4xOTEzIDExLjAxMjhDMTEuMjAwOSAxMS4zMjIzIDExLjMwNzYgMTEuNTkzNyAxMS41MDQgMTEuNzkxMUMxMS43MDY5IDExLjk5NSAxMS45NzQ3IDEyLjA4ODEgMTIuMjM0NSAxMi4wODNDMTIuNzY3IDEyLjA3MjcgMTMuMjYwNiAxMS42NTY4IDEzLjI4OCAxMC45ODQ3WiIvPiYjeGE7PGRlZnM+JiN4YTs8bGluZWFyR3JhZGllbnQgZ3JhZGllbnRVbml0cz0idXNlclNwYWNlT25Vc2UiIHkyPSIxNC43NDU4IiB4Mj0iMTMuNjg3NCIgeTE9IjIuMjY4OTQiIHgxPSIxLjQ1MDQzIiBpZD0icGFpbnQwX2xpbmVhcl8zODkwXzIxNTEzIj4mI3hhOzxzdG9wIHN0b3AtY29sb3I9IndoaXRlIi8+JiN4YTs8c3RvcCBzdG9wLWNvbG9yPSIjRUFFQ0VFIiBvZmZzZXQ9IjEiLz4mI3hhOzwvbGluZWFyR3JhZGllbnQ+JiN4YTs8bGluZWFyR3JhZGllbnQgZ3JhZGllbnRVbml0cz0idXNlclNwYWNlT25Vc2UiIHkyPSI5LjQxNzg5IiB4Mj0iMTAuNTkxOSIgeTE9IjQuNzA1IiB4MT0iNC42MzYiIGlkPSJwYWludDFfbGluZWFyXzM4OTBfMjE1MTMiPiYjeGE7PHN0b3Agc3RvcC1jb2xvcj0iIzAxOTVGRiIvPiYjeGE7PHN0b3Agc3RvcC1jb2xvcj0iIzExNDdFOSIgb2Zmc2V0PSIwLjk5MTAyOCIvPiYjeGE7PC9saW5lYXJHcmFkaWVudD4mI3hhOzxsaW5lYXJHcmFkaWVudCBncmFkaWVudFVuaXRzPSJ1c2VyU3BhY2VPblVzZSIgeTI9IjExLjg3NzMiIHgyPSIxMy4yNjI3IiB5MT0iOC4wNzA4MiIgeDE9IjguOTE1NjUiIGlkPSJwYWludDJfbGluZWFyXzM4OTBfMjE1MTMiPiYjeGE7PHN0b3Agc3RvcC1jb2xvcj0iIzEzNDhGRiIvPiYjeGE7PHN0b3Agc3RvcC1jb2xvcj0iIzA2MjM4RCIgb2Zmc2V0PSIxIi8+JiN4YTs8L2xpbmVhckdyYWRpZW50PiYjeGE7PGxpbmVhckdyYWRpZW50IGdyYWRpZW50VW5pdHM9InVzZXJTcGFjZU9uVXNlIiB5Mj0iMTEuODc3MyIgeDI9IjEzLjI2MjciIHkxPSI4LjA3MDgyIiB4MT0iOC45MTU2NSIgaWQ9InBhaW50M19saW5lYXJfMzg5MF8yMTUxMyI+JiN4YTs8c3RvcCBzdG9wLWNvbG9yPSIjMTM0OEZGIi8+JiN4YTs8c3RvcCBzdG9wLWNvbG9yPSIjMDYyMzhEIiBvZmZzZXQ9IjEiLz4mI3hhOzwvbGluZWFyR3JhZGllbnQ+JiN4YTs8bGluZWFyR3JhZGllbnQgZ3JhZGllbnRVbml0cz0idXNlclNwYWNlT25Vc2UiIHkyPSIxMS44NzczIiB4Mj0iMTMuMjYyNyIgeTE9IjguMDcwODIiIHgxPSI4LjkxNTY1IiBpZD0icGFpbnQ0X2xpbmVhcl8zODkwXzIxNTEzIj4mI3hhOzxzdG9wIHN0b3AtY29sb3I9IiMxMzQ4RkYiLz4mI3hhOzxzdG9wIHN0b3AtY29sb3I9IiMwNjIzOEQiIG9mZnNldD0iMSIvPiYjeGE7PC9saW5lYXJHcmFkaWVudD4mI3hhOzwvZGVmcz4mI3hhOzwvc3ZnPg==;fontColor=#1D2D3E;" parent="n7TMKBVMU3mKDdDENP5A-31" vertex="1">
          <mxGeometry x="211.00000000000023" y="17.60313081184045" width="32" height="32" as="geometry" />
        </mxCell>
        <mxCell id="n7TMKBVMU3mKDdDENP5A-81" value="Identity&#xa;Provisoning" style="shape=image;verticalLabelPosition=bottom;labelBackgroundColor=default;verticalAlign=top;aspect=fixed;imageAspect=0;image=data:image/svg+xml,PHN2ZyB4bWxucz0iaHR0cDovL3d3dy53My5vcmcvMjAwMC9zdmciIGZpbGw9Im5vbmUiIHZpZXdCb3g9IjAgMCAxNiAxNiIgaGVpZ2h0PSIxNiIgd2lkdGg9IjE2Ij4mI3hhOzxjaXJjbGUgc3Ryb2tlLXdpZHRoPSIwLjI4NTcwOCIgc3Ryb2tlPSIjRDVEQUREIiBmaWxsPSJ1cmwoI3BhaW50MF9saW5lYXJfMzg5MF8yMTUxNCkiIHI9IjcuODU2OTYiIGN5PSI3Ljk5Nzg2IiBjeD0iNy45OTg4NCIvPiYjeGE7PHBhdGggZmlsbD0idXJsKCNwYWludDFfbGluZWFyXzM4OTBfMjE1MTQpIiBkPSJNOS45NTE5NCA3LjUxODg5QzkuOTg5MjcgNy4yODAxNyAxMC4yMTMxIDcuMTE2OTEgMTAuNDUxOCA3LjE1NDI0QzExLjMwODMgNy4yODgxOSAxMi4xNTA3IDcuNjk1MzcgMTIuODQzNSA4LjM5MjA0QzEzLjAxMzkgOC41NjMzNiAxMy4wMTMxIDguODQwMzcgMTIuODQxOCA5LjAxMDc1QzEyLjY3MDUgOS4xODExNCAxMi4zOTM1IDkuMTgwMzcgMTIuMjIzMSA5LjAwOTA1QzExLjY2MjUgOC40NDUzNiAxMC45OTA1IDguMTI0MTIgMTAuMzE2NiA4LjAxODczQzEwLjA3NzkgNy45ODE0IDkuOTE0NjEgNy43NTc2MSA5Ljk1MTk0IDcuNTE4ODlaIiBjbGlwLXJ1bGU9ImV2ZW5vZGQiIGZpbGwtcnVsZT0iZXZlbm9kZCIvPiYjeGE7PHBhdGggZmlsbD0idXJsKCNwYWludDJfbGluZWFyXzM4OTBfMjE1MTQpIiBkPSJNMTAuMzM1NiAxMS4yNTQ5QzEwLjMzNTYgMTEuMDEzMyAxMC4xMzk3IDEwLjgxNzQgOS44OTgwOSAxMC44MTc0QzkuNjU2NDcgMTAuODE3NCA5LjQ2MDU5IDExLjAxMzMgOS40NjA1OSAxMS4yNTQ5QzkuNDYwNTkgMTEuNTk4NSA5LjU1MjY0IDExLjk2NDYgOS43MzYwMSAxMi4yNjA5QzkuNzU0OTQgMTIuMjkxNCA5Ljc3NDAxIDEyLjMyMTkgOS43OTY5NyAxMi4zNDkzQzkuOTM5MjIgMTIuNTE5NSAxMC4xOTY1IDEyLjU1ODEgMTAuMzgyMiAxMi40Mjk4QzEwLjU3OTkgMTIuMjkzMiAxMC42MzAyIDEyLjAyMjkgMTAuNDk1NiAxMS44MjQ0QzEwLjM5MDQgMTEuNjU4MyAxMC4zMzU2IDExLjQ1MDIgMTAuMzM1NiAxMS4yNTQ5WiIvPiYjeGE7PHBhdGggZmlsbD0idXJsKCNwYWludDNfbGluZWFyXzM4OTBfMjE1MTQpIiBkPSJNMTIuNjg3NSAxMC45ODQ3QzEyLjczMzUgOS44NTg1IDExLjg2NjIgOC45MTQzOCAxMC44NTY4IDguNTM1MjlDOS44MTExMiA4LjE0MjYgOC41MDMxNyA4LjMwNDQ2IDcuNTk3OTcgOS40ODIxNUM3LjQ1MDcyIDkuNjczNzIgNy40ODY2NiA5Ljk0ODM5IDcuNjc4MjMgMTAuMDk1NkM3Ljg2OTggMTAuMjQyOSA4LjE0NDQ3IDEwLjIwNyA4LjI5MTcyIDEwLjAxNTRDOC45Mjg4NyA5LjE4NjQzIDkuODA5NjQgOS4wNzY3MSAxMC41NDkxIDkuMzU0NDNDMTEuMzI0OCA5LjY0NTczIDExLjgzOTEgMTAuMzE0IDExLjgxMzIgMTAuOTQ5QzExLjgwODQgMTEuMDY3IDExLjc2ODYgMTEuMTI2OSAxMS43MzgxIDExLjE1NjdDMTEuNzAzNyAxMS4xOTA0IDExLjY1OTMgMTEuMjA3NCAxMS42MTcgMTEuMjA4MkMxMS41NzU1IDExLjIwOSAxMS41NDQ0IDExLjE5NDcgMTEuNTIzNyAxMS4xNzM5QzExLjUwNiAxMS4xNTYxIDExLjQ2NSAxMS4xMDI0IDExLjQ2NSAxMC45NjY5QzExLjQ2NSAxMC41OTI2IDExLjIyNzYgMTAuMTkxNiAxMC44ODMxIDkuOTMzMDhDMTAuNTEyMyA5LjY1NDcxIDkuOTg3NSA5LjUxMjU3IDkuMzcwODEgOS42ODI3M0w5LjM2MTc4IDkuNjg1MjJMOS4zNTI4NiA5LjY4ODA5QzguNzYyMzIgOS44Nzg1OSA4LjM4NTY1IDEwLjQzMDYgOC4zMDEwMSAxMS4wNzU1QzguMjE1NTQgMTEuNzI2OSA4LjQxNTY1IDEyLjQ5MzEgOC45Njc3MyAxMy4yMzgxQzkuMTExNTkgMTMuNDMyMiA5LjM4NTU4IDEzLjQ3MyA5LjU3OTcxIDEzLjMyOTFDOS43NzM4NSAxMy4xODUzIDkuODE0NiAxMi45MTEzIDkuNjcwNzQgMTIuNzE3MUM5LjIyNzMxIDEyLjExODggOS4xMTc5MyAxMS41NzUzIDkuMTY4NTggMTEuMTg5NEM5LjIxOTM2IDEwLjgwMjQgOS40MTk1NSAxMC41OSA5LjYxMzQ2IDEwLjUyMzVDOS45NTk4OCAxMC40MzA4IDEwLjIwMjIgMTAuNTE2IDEwLjM1NzkgMTAuNjMyOUMxMC40NDEzIDEwLjY5NTUgMTAuNTAzMyAxMC43NyAxMC41NDI4IDEwLjgzOTRDMTAuNTg0OCAxMC45MTE0IDEwLjU4ODMgMTAuOTQ4IDEwLjU5MDcgMTEuMDEyOEMxMC42MDAzIDExLjMyMjMgMTAuNzA3MSAxMS41OTM3IDEwLjkwMzQgMTEuNzkxMUMxMS4xMDYzIDExLjk5NSAxMS4zNzQxIDEyLjA4ODEgMTEuNjMzOSAxMi4wODNDMTIuMTY2NCAxMi4wNzI3IDEyLjY2IDExLjY1NjggMTIuNjg3NSAxMC45ODQ3WiIvPiYjeGE7PHBhdGggZmlsbD0idXJsKCNwYWludDRfbGluZWFyXzM4OTBfMjE1MTQpIiBkPSJNOC41NzMzMSA3LjI4NTg0QzguMzc4MDUgNy40ODExMSA4LjA2MTQ3IDcuNDgxMTEgNy44NjYyMSA3LjI4NTg1QzcuNjcwOTQgNy4wOTA1OSA3LjY3MDk0IDYuNzc0IDcuODY2MiA2LjU3ODc0TDguNTI5OCA1LjkxNTEzSDQuNTcwNzdDNC4yOTQ2MiA1LjkxNTEzIDQuMDcwNzcgNS42OTEyNyA0LjA3MDc3IDUuNDE1MTNDNC4wNzA3NyA1LjEzODk5IDQuMjk0NjIgNC45MTUxMyA0LjU3MDc3IDQuOTE1MTNIOC41Mjk4MUw3Ljg2NjIgNC4yNTE1QzcuNjcwOTQgNC4wNTYyMyA3LjY3MDk0IDMuNzM5NjUgNy44NjYyMSAzLjU0NDM5QzguMDYxNDcgMy4zNDkxMyA4LjM3ODA1IDMuMzQ5MTQgOC41NzMzMSAzLjU0NDRMMTAuMDkwNSA1LjA2MTU4QzEwLjI4NTcgNS4yNTY4NCAxMC4yODU3IDUuNTczNDIgMTAuMDkwNSA1Ljc2ODY4TDguNTczMzEgNy4yODU4NFoiLz4mI3hhOzxwYXRoIGZpbGw9InVybCgjcGFpbnQ1X2xpbmVhcl8zODkwXzIxNTE0KSIgZD0iTTQuNjYyNjEgNi43NzE2MkM0Ljg1Nzg3IDYuNTc2MzUgNS4xNzQ0NSA2LjU3NjM1IDUuMzY5NzIgNi43NzE2MUM1LjU2NDk4IDYuOTY2ODcgNS41NjQ5OCA3LjI4MzQ2IDUuMzY5NzIgNy40Nzg3Mkw0LjcwNjEyIDguMTQyMzNINi40MTIzOEM2LjY4ODUyIDguMTQyMzMgNi45MTIzOCA4LjM2NjE5IDYuOTEyMzggOC42NDIzM0M2LjkxMjM4IDguOTE4NDcgNi42ODg1MiA5LjE0MjMzIDYuNDEyMzggOS4xNDIzM0g0LjcwNjExTDUuMzY5NzIgOS44MDU5NkM1LjU2NDk4IDEwLjAwMTIgNS41NjQ5OCAxMC4zMTc4IDUuMzY5NzIgMTAuNTEzMUM1LjE3NDQ1IDEwLjcwODMgNC44NTc4NyAxMC43MDgzIDQuNjYyNjEgMTAuNTEzMUwzLjE0NTQ3IDguOTk1ODhDMi45NTAyMSA4LjgwMDYyIDIuOTUwMjEgOC40ODQwNCAzLjE0NTQ3IDguMjg4NzhMNC42NjI2MSA2Ljc3MTYyWiIvPiYjeGE7PGRlZnM+JiN4YTs8bGluZWFyR3JhZGllbnQgZ3JhZGllbnRVbml0cz0idXNlclNwYWNlT25Vc2UiIHkyPSIxNC43NDU4IiB4Mj0iMTMuNjg2OSIgeTE9IjIuMjY4OTQiIHgxPSIxLjQ0OTk1IiBpZD0icGFpbnQwX2xpbmVhcl8zODkwXzIxNTE0Ij4mI3hhOzxzdG9wIHN0b3AtY29sb3I9IndoaXRlIi8+JiN4YTs8c3RvcCBzdG9wLWNvbG9yPSIjRUFFQ0VFIiBvZmZzZXQ9IjEiLz4mI3hhOzwvbGluZWFyR3JhZGllbnQ+JiN4YTs8bGluZWFyR3JhZGllbnQgZ3JhZGllbnRVbml0cz0idXNlclNwYWNlT25Vc2UiIHkyPSIxMS44NzczIiB4Mj0iMTIuNjYyMSIgeTE9IjguMDcwODIiIHgxPSI4LjMxNTA2IiBpZD0icGFpbnQxX2xpbmVhcl8zODkwXzIxNTE0Ij4mI3hhOzxzdG9wIHN0b3AtY29sb3I9IiMxMzQ4RkYiLz4mI3hhOzxzdG9wIHN0b3AtY29sb3I9IiMwNjIzOEQiIG9mZnNldD0iMSIvPiYjeGE7PC9saW5lYXJHcmFkaWVudD4mI3hhOzxsaW5lYXJHcmFkaWVudCBncmFkaWVudFVuaXRzPSJ1c2VyU3BhY2VPblVzZSIgeTI9IjExLjg3NzMiIHgyPSIxMi42NjIxIiB5MT0iOC4wNzA4MiIgeDE9IjguMzE1MDYiIGlkPSJwYWludDJfbGluZWFyXzM4OTBfMjE1MTQiPiYjeGE7PHN0b3Agc3RvcC1jb2xvcj0iIzEzNDhGRiIvPiYjeGE7PHN0b3Agc3RvcC1jb2xvcj0iIzA2MjM4RCIgb2Zmc2V0PSIxIi8+JiN4YTs8L2xpbmVhckdyYWRpZW50PiYjeGE7PGxpbmVhckdyYWRpZW50IGdyYWRpZW50VW5pdHM9InVzZXJTcGFjZU9uVXNlIiB5Mj0iMTEuODc3MyIgeDI9IjEyLjY2MjEiIHkxPSI4LjA3MDgyIiB4MT0iOC4zMTUwNiIgaWQ9InBhaW50M19saW5lYXJfMzg5MF8yMTUxNCI+JiN4YTs8c3RvcCBzdG9wLWNvbG9yPSIjMTM0OEZGIi8+JiN4YTs8c3RvcCBzdG9wLWNvbG9yPSIjMDYyMzhEIiBvZmZzZXQ9IjEiLz4mI3hhOzwvbGluZWFyR3JhZGllbnQ+JiN4YTs8bGluZWFyR3JhZGllbnQgZ3JhZGllbnRVbml0cz0idXNlclNwYWNlT25Vc2UiIHkyPSI5LjU1MzU0IiB4Mj0iOS4xNjg1IiB5MT0iNC40ODM4NyIgeDE9IjQuMDg0MDEiIGlkPSJwYWludDRfbGluZWFyXzM4OTBfMjE1MTQiPiYjeGE7PHN0b3Agc3RvcC1jb2xvcj0iIzAxOTVGRiIvPiYjeGE7PHN0b3Agc3RvcC1jb2xvcj0iIzExNDdFOSIgb2Zmc2V0PSIwLjk5MTAyOCIvPiYjeGE7PC9saW5lYXJHcmFkaWVudD4mI3hhOzxsaW5lYXJHcmFkaWVudCBncmFkaWVudFVuaXRzPSJ1c2VyU3BhY2VPblVzZSIgeTI9IjkuNTUzNTQiIHgyPSI5LjE2ODUiIHkxPSI0LjQ4Mzg3IiB4MT0iNC4wODQwMSIgaWQ9InBhaW50NV9saW5lYXJfMzg5MF8yMTUxNCI+JiN4YTs8c3RvcCBzdG9wLWNvbG9yPSIjMDE5NUZGIi8+JiN4YTs8c3RvcCBzdG9wLWNvbG9yPSIjMTE0N0U5IiBvZmZzZXQ9IjAuOTkxMDI4Ii8+JiN4YTs8L2xpbmVhckdyYWRpZW50PiYjeGE7PC9kZWZzPiYjeGE7PC9zdmc+;fontColor=#1D2D3E;" parent="n7TMKBVMU3mKDdDENP5A-31" vertex="1">
          <mxGeometry x="296" y="17.60313081184045" width="32" height="32" as="geometry" />
        </mxCell>
        <mxCell id="n7TMKBVMU3mKDdDENP5A-35" value="" style="shape=image;verticalLabelPosition=bottom;labelBackgroundColor=default;verticalAlign=top;aspect=fixed;imageAspect=0;image=data:image/svg+xml,PHN2ZyB4bWxuczp4bGluaz0iaHR0cDovL3d3dy53My5vcmcvMTk5OS94bGluayIgeG1sbnM9Imh0dHA6Ly93d3cudzMub3JnLzIwMDAvc3ZnIiB2aWV3Qm94PSIwIDAgMTQ0Ljc0NyAzOS44MzIiIGlkPSJhIj48ZGVmcz48bGluZWFyR3JhZGllbnQgZ3JhZGllbnRVbml0cz0idXNlclNwYWNlT25Vc2UiIHkyPSIzOS44MzIiIHgyPSI0MC4yNTgiIHkxPSIwIiB4MT0iNDAuMjU4IiBpZD0iYiI+PHN0b3Agc3RvcC1jb2xvcj0iIzAwYjhmMSIgb2Zmc2V0PSIwIi8+PHN0b3Agc3RvcC1jb2xvcj0iIzAwYjVlZiIgb2Zmc2V0PSIuMDE2Ii8+PHN0b3Agc3RvcC1jb2xvcj0iIzBkOTBkOCIgb2Zmc2V0PSIuMzA4Ii8+PHN0b3Agc3RvcC1jb2xvcj0iIzE2NzVjOCIgb2Zmc2V0PSIuNTc4Ii8+PHN0b3Agc3RvcC1jb2xvcj0iIzFjNjRiZSIgb2Zmc2V0PSIuODE3Ii8+PHN0b3Agc3RvcC1jb2xvcj0iIzFlNWZiYiIgb2Zmc2V0PSIxIi8+PC9saW5lYXJHcmFkaWVudD48L2RlZnM+PHBvbHlsaW5lIGZpbGwtcnVsZT0iZXZlbm9kZCIgZmlsbD0idXJsKCNiKSIgcG9pbnRzPSIwIDM5LjgzMiA0MC42OTIgMzkuODMyIDgwLjUxNyAwIDAgMCAwIDM5LjgzMiIvPjxwYXRoIGZpbGwtcnVsZT0iZXZlbm9kZCIgZmlsbD0iI2ZmZiIgZD0ibTQ3Ljc4Miw3LjQ4OWwtNy45MjUtLjAwNXYxOC44NDVsLTYuOTI0LTE4Ljg0NWgtNi44NjVsLTUuOTEyLDE1Ljc1OWMtLjYzLTMuOTczLTQuNzQtNS4zNDUtNy45NzQtNi4zNzQtMi4xMzUtLjY4Ni00LjQwMS0xLjY5NC00LjM4LTIuODA5LjAxNy0uOTE1LDEuMjE1LTEuNzY1LDMuNTg5LTEuNjM3LDEuNTk1LjA4NCwzLjAwMS4yMTMsNS44LDEuNTYzbDIuNzUzLTQuNzk1Yy0yLjU1NS0xLjMtNi4wODYtMi4xMjEtOC45NzgtMi4xMjRoLS4wMTdjLTMuMzc0LDAtNi4xODUsMS4wOTMtNy45MjgsMi44OTQtMS4yMTQsMS4yNTgtMS44NjksMi44NTYtMS44OTYsNC42MjMtLjA0NCwyLjQzMi44NDgsNC4xNTcsMi43MjEsNS41MzMsMS41ODMsMS4xNiwzLjYwNiwxLjkxMiw1LjM5LDIuNDY1LDIuMjAxLjY4MSwzLjk5NiwxLjI3NCwzLjk3NSwyLjUzOS0uMDE2LjQ1OS0uMTkxLjg4OC0uNTIxLDEuMjM2LS41NDguNTY2LTEuMzkxLjc3OS0yLjU1NS43OTktMi4yNDQuMDQ4LTMuOTEtLjMwMy02LjU2Mi0xLjg3bC0yLjQ0OCw0Ljg2MWMyLjY0NCwxLjUwNiw1Ljc3NiwyLjM4OCw4Ljk3MiwyLjM4OGwuNDExLS4wMDZjMi43ODItLjA1LDUuMDI2LS44NDIsNi44Mi0yLjI4Ni4xMDMtLjA4MS4xOTYtLjE2Ni4yOTEtLjI1bC0uNzk1LDIuMTIzaDcuMmwxLjIwOC0zLjY3NGMxLjI2NS40MzMsMi43MDQuNjcxLDQuMjMyLjY3MSwxLjQ4NywwLDIuODg5LS4yMjksNC4xMzEtLjYzNWwxLjE2NCwzLjYzN2gxMS43NDJ2LTcuNjA3aDIuNTYxYzYuMTg4LDAsOS44NTEtMy4xNTQsOS44NTEtOC40MzYsMC01Ljg4NS0zLjU1Ny04LjU4NS0xMS4xMzItOC41ODVabS0xOC4zMTcsMTYuMTI0Yy0uOTI1LDAtMS43OTItLjE2LTIuNTM5LS40NDNsMi41MTItNy45MjZoLjA0OGwyLjQ2OCw3Ljk0OGMtLjc0Mi4yNjMtMS41ODkuNDIxLTIuNDg4LjQyMVptMTguNzgzLTQuNTUzaC0xLjc0NnYtNi4zODZoMS43NDZjMi4zMjgsMCw0LjE4NS43NzMsNC4xODUsMy4xNTEsMCwyLjQ2MS0xLjg1NywzLjIzNi00LjE4NSwzLjIzNiIvPjxwYXRoIGZpbGw9IiMwMDJhODYiIGQ9Im04MC4yMTcsNy40MDFoMTAuMDYzYzUuNTk1LDAsOC42NzQsMS45MTcsOC42NzQsNi4xNTgsMCwyLjkwMy0xLjUxMyw1LjAxNC00LjMxMSw1LjcsMy4yOS40NTgsNS4yNzgsMi41ODYsNS4yNzgsNS44OTQsMCw1LjAxNC00LjA2NCw3LjAzNy05LjE4NCw3LjAzN2gtMTAuNTIxVjcuNDAxWm0xMy45NjksNi44MjZjMC0yLjE2NC0xLjQ5Ni0yLjk3My00LjI0LTIuOTczaC01LjA0OXY2LjI5OGg0Ljg5MWMzLjIwMiwwLDQuMzk4LTEuMTYxLDQuMzk4LTMuMzI1Wm0xLjAyMSwxMC41MjFjMC0yLjM1Ny0xLjc3Ny0zLjQ2Ni00LjgzOS0zLjQ2NmgtNS40NzF2Ny4wNTVoNS41MDZjMi44MTUsMCw0LjgwNC0uNzc0LDQuODA0LTMuNTg5WiIvPjxwYXRoIGZpbGw9IiMwMDJhODYiIGQ9Im0xMDkuMDUxLDExLjVoLTcuNTgzdi00LjA5OWgxOS44NDZ2NC4wOTloLTcuNTY1djIwLjY5aC00LjY5N1YxMS41WiIvPjxwYXRoIGZpbGw9IiMwMDJhODYiIGQ9Im0xMjUuMTQ4LDcuNDAxaDEwLjUwNGM2LjE5MiwwLDkuMDk2LDMuMTg1LDkuMDk2LDcuODk5LDAsNC4zOTgtMi44MzMsOC4xNDYtOC44NSw4LjE0NmgtNi4wN3Y4Ljc0NGgtNC42OFY3LjQwMVptMTQuOTAyLDcuOTUyYzAtMi41NTEtMS42ODktMy45MjMtNC45NDQtMy45MjNoLTUuMjc4djguMDRoNS40MTljMy4yNzIsMCw0LjgwNC0xLjU4Myw0LjgwNC00LjExN1oiLz48L3N2Zz4=;strokeWidth=1.5;" parent="1" vertex="1">
          <mxGeometry x="-1013.9999999999998" y="70.00000000000006" width="67.25" height="18.55" as="geometry" />
        </mxCell>
        <mxCell id="n7TMKBVMU3mKDdDENP5A-36" value="" style="endArrow=none;html=1;strokeColor=#475E75;bendable=1;rounded=0;endFill=0;endSize=4;strokeWidth=1.5;startSize=4;startArrow=none;startFill=0;edgeStyle=orthogonalEdgeStyle;exitX=1;exitY=0.5;exitDx=0;exitDy=0;exitPerimeter=0;entryX=0;entryY=0.5;entryDx=0;entryDy=0;" parent="1" target="n7TMKBVMU3mKDdDENP5A-62" edge="1">
          <mxGeometry width="50" height="50" relative="1" as="geometry">
            <mxPoint x="-482.4298507462687" y="349.3388059701493" as="sourcePoint" />
            <mxPoint x="-330" y="349" as="targetPoint" />
            <Array as="points">
              <mxPoint x="-482" y="348" />
            </Array>
          </mxGeometry>
        </mxCell>
        <mxCell id="n7TMKBVMU3mKDdDENP5A-38" value="" style="strokeColor=#0070F2;shadow=0;strokeWidth=2;rounded=1;absoluteArcSize=1;arcSize=20;whiteSpace=wrap;verticalAlign=bottom;spacing=10;fontSize=10;fontColor=#556B82;align=left;container=0;" parent="1" vertex="1">
          <mxGeometry x="-194" y="260" width="214" height="235" as="geometry" />
        </mxCell>
        <mxCell id="n7TMKBVMU3mKDdDENP5A-39" value="NETWORK" style="text;html=1;align=left;verticalAlign=middle;resizable=0;points=[];autosize=1;strokeColor=none;fillColor=none;fontSize=14;fontStyle=1;fontColor=#5B738B;" parent="1" vertex="1">
          <mxGeometry x="-215" y="50" width="100" height="30" as="geometry" />
        </mxCell>
        <mxCell id="n7TMKBVMU3mKDdDENP5A-40" value="" style="endArrow=blockThin;html=1;strokeColor=#188918;bendable=1;rounded=0;endFill=1;endSize=4;strokeWidth=1.5;startSize=4;startArrow=none;startFill=0;edgeStyle=orthogonalEdgeStyle;" parent="1" source="n7TMKBVMU3mKDdDENP5A-46" target="n7TMKBVMU3mKDdDENP5A-38" edge="1">
          <mxGeometry width="50" height="50" relative="1" as="geometry">
            <mxPoint x="-92.5" y="570" as="sourcePoint" />
            <mxPoint x="-184" y="700" as="targetPoint" />
          </mxGeometry>
        </mxCell>
        <mxCell id="n7TMKBVMU3mKDdDENP5A-42" value="" style="endArrow=blockThin;html=1;strokeColor=#475E75;bendable=1;rounded=0;endFill=1;endSize=4;strokeWidth=1.5;startSize=4;startArrow=none;startFill=0;edgeStyle=orthogonalEdgeStyle;entryX=-0.001;entryY=0.123;entryDx=0;entryDy=0;entryPerimeter=0;exitX=1;exitY=0.5;exitDx=0;exitDy=0;" parent="1" source="n7TMKBVMU3mKDdDENP5A-62" target="n7TMKBVMU3mKDdDENP5A-38" edge="1">
          <mxGeometry width="50" height="50" relative="1" as="geometry">
            <mxPoint x="-254" y="401" as="sourcePoint" />
            <mxPoint x="-214" y="388" as="targetPoint" />
            <Array as="points" />
          </mxGeometry>
        </mxCell>
        <mxCell id="n7TMKBVMU3mKDdDENP5A-46" value="SAML2/OIDC" style="rounded=1;whiteSpace=wrap;html=1;strokeColor=#188918;strokeWidth=1.5;arcSize=16;fillColor=#F5FAE5;perimeterSpacing=0;absoluteArcSize=1;fontColor=#188918;fontSize=10;fontStyle=1" parent="1" vertex="1">
          <mxGeometry x="-346" y="559" width="70" height="16" as="geometry" />
        </mxCell>
        <mxCell id="n7TMKBVMU3mKDdDENP5A-47" style="edgeStyle=elbowEdgeStyle;rounded=0;orthogonalLoop=1;jettySize=auto;html=1;strokeColor=#475E75;endArrow=blockThin;endFill=1;strokeWidth=1.5;sourcePerimeterSpacing=0;targetPerimeterSpacing=0;endSize=4;startSize=4;elbow=vertical;exitX=0.625;exitY=0;exitDx=0;exitDy=0;exitPerimeter=0;entryX=-0.012;entryY=0.574;entryDx=0;entryDy=0;entryPerimeter=0;" parent="1" target="n7TMKBVMU3mKDdDENP5A-23" edge="1">
          <mxGeometry relative="1" as="geometry">
            <mxPoint x="-596.268656716418" y="403.57313432835815" as="sourcePoint" />
            <mxPoint x="-516" y="352.8635820895523" as="targetPoint" />
            <Array as="points">
              <mxPoint x="-556" y="353" />
            </Array>
          </mxGeometry>
        </mxCell>
        <mxCell id="n7TMKBVMU3mKDdDENP5A-53" style="edgeStyle=elbowEdgeStyle;rounded=0;orthogonalLoop=1;jettySize=auto;html=1;strokeColor=#475E75;endArrow=none;endFill=0;strokeWidth=1.5;sourcePerimeterSpacing=0;targetPerimeterSpacing=0;endSize=4;startSize=4;elbow=vertical;startArrow=none;startFill=0;entryX=1.034;entryY=0.455;entryDx=0;entryDy=0;entryPerimeter=0;exitX=0.805;exitY=0.115;exitDx=0;exitDy=0;exitPerimeter=0;" parent="1" source="n7TMKBVMU3mKDdDENP5A-23" target="n7TMKBVMU3mKDdDENP5A-19" edge="1">
          <mxGeometry relative="1" as="geometry">
            <mxPoint x="-454" y="340" as="sourcePoint" />
            <mxPoint x="-490.4298507462687" y="139.24029850746274" as="targetPoint" />
            <Array as="points">
              <mxPoint x="-460" y="238" />
            </Array>
          </mxGeometry>
        </mxCell>
        <mxCell id="n7TMKBVMU3mKDdDENP5A-54" value="" style="group" parent="1" vertex="1" connectable="0">
          <mxGeometry x="-1164" y="180" width="130" height="257" as="geometry" />
        </mxCell>
        <mxCell id="n7TMKBVMU3mKDdDENP5A-55" style="edgeStyle=orthogonalEdgeStyle;rounded=0;orthogonalLoop=1;jettySize=auto;html=1;strokeColor=#475E75;endArrow=blockThin;endFill=1;" parent="n7TMKBVMU3mKDdDENP5A-54" source="n7TMKBVMU3mKDdDENP5A-56" target="n7TMKBVMU3mKDdDENP5A-59" edge="1">
          <mxGeometry relative="1" as="geometry" />
        </mxCell>
        <mxCell id="n7TMKBVMU3mKDdDENP5A-56" value="End User" style="shape=image;editableCssRules=.*;verticalLabelPosition=bottom;labelBackgroundColor=default;verticalAlign=top;aspect=fixed;imageAspect=0;image=data:image/svg+xml,PHN2ZyB4bWxucz0iaHR0cDovL3d3dy53My5vcmcvMjAwMC9zdmciIHZpZXdCb3g9Ii0wLjUgLTAuNSAyOCAyOCIgaGVpZ2h0PSIyOCIgd2lkdGg9IjI4Ij4mI3hhOwkgIDxzdHlsZSB0eXBlPSJ0ZXh0L2NzcyI+LnN0MCB7IHN0b3AtY29sb3I6IHJnYig5MSwgMTE1LCAxMzkpOyB9IC5zdDEgeyBzdG9wLWNvbG9yOiByZ2IoMzQsIDUzLCA3Mik7IH0gPC9zdHlsZT4mI3hhOwk8ZGVmcz4mI3hhOwkJPGxpbmVhckdyYWRpZW50IGdyYWRpZW50VW5pdHM9InVzZXJTcGFjZU9uVXNlIiB5Mj0iMjUuMzA5IiB4Mj0iMjMuNDU0IiB5MT0iMy40NzQiIHgxPSIyLjAzOSIgaWQ9IkEiPiYjeGE7CQkJPHN0b3AgY2xhc3M9InN0MCIvPiYjeGE7CQkJPHN0b3AgY2xhc3M9InN0MSIgb2Zmc2V0PSIxIi8+JiN4YTsJCTwvbGluZWFyR3JhZGllbnQ+JiN4YTsJPC9kZWZzPiYjeGE7CTxwYXRoIGZpbGw9InVybCgjQSkiIGQ9Ik0tLjUgMTMuNDcyYzAtMS45My4zNzEtMy43MyAxLjExMy01LjQuNzQyLTEuNzA3IDEuNzQ0LTMuMTkyIDMuMDA2LTQuNDUzUzYuMzY1IDEuMzU2IDguMDczLjYxMyAxMS41OTgtLjUgMTMuNTI4LS41czMuNzMuMzcxIDUuNCAxLjExM2MxLjcwNy43NDIgMy4xOTIgMS43NDQgNC40NTMgMy4wMDZzMi4yNjQgMi43NDYgMy4wMDYgNC40NTNjLjc0MiAxLjY3IDEuMTEzIDMuNDcgMS4xMTMgNS40cy0uMzcxIDMuNzQ4LTEuMTEzIDUuNDU1LTEuNzQ0IDMuMTkyLTMuMDA2IDQuNDUzYTE0LjI4IDE0LjI4IDAgMCAxLTQuNDUzIDMuMDA2Yy0xLjY3Ljc0Mi0zLjQ3IDEuMTEzLTUuNCAxLjExM3MtMy43NDgtLjM3MS01LjQ1NS0xLjExM2ExNC4yOCAxNC4yOCAwIDAgMS00LjQ1My0zLjAwNiAxNC4yOCAxNC4yOCAwIDAgMS0zLjAwNi00LjQ1M0MtLjEyOSAxNy4yMi0uNSAxNS40MDItLjUgMTMuNDcyem0xNi44MTEgNC4yMzFhNi42NSA2LjY1IDAgMCAxIDMuMjg0LjgzNWMxLjAwMi41MiAxLjgxOCAxLjI0MyAyLjQ0OSAyLjE3MWExMC4xNCAxMC4xNCAwIDAgMCAxLjk0OC0zLjI4NGMuNDgyLTEuMjI1LjcyNC0yLjU0Mi43MjQtMy45NTIgMC0xLjU1OS0uMjk3LTMuMDA2LS44OTEtNC4zNDItLjU5NC0xLjM3My0xLjM5Mi0yLjU2MS0yLjM5NC0zLjU2M3MtMi4xOS0xLjgtMy41NjMtMi4zOTRjLTEuMzM2LS41OTQtMi43ODMtLjg5MS00LjM0Mi0uODkxcy0zLjAyNC4yOTctNC4zOTguODkxYy0xLjMzNi41OTQtMi41MjQgMS4zOTItMy41NjMgMi4zOTRBMTEuMzUgMTEuMzUgMCAwIDAgMy4xNzQgOS4xM2MtLjU5NCAxLjMzNi0uODkxIDIuNzgzLS44OTEgNC4zNDIgMCAxLjQxLjIyMyAyLjcyOC42NjggMy45NTIuNDgyIDEuMjI1IDEuMTUgMi4zMTkgMi4wMDQgMy4yODQuNjMxLS45MjggMS40NDctMS42NTEgMi40NDktMi4xNzFhNi42NSA2LjY1IDAgMCAxIDMuMjg0LS44MzV6bTIuNzgzLTcuMDE0YTUuNjggNS42OCAwIDAgMS0uNDQ1IDIuMjI3IDUuODcgNS44NyAwIDAgMS0xLjIyNSAxLjc4MWMtLjQ4Mi40ODItMS4wNTguODcyLTEuNzI2IDEuMTY5cy0xLjM5Mi40NDUtMi4xNzEuNDQ1YTUuNjggNS42OCAwIDAgMS0yLjIyNy0uNDQ1IDYuNDQgNi40NCAwIDAgMS0xLjc4MS0xLjE2OSA2LjQ0IDYuNDQgMCAwIDEtMS4xNjktMS43ODEgNS42OCA1LjY4IDAgMCAxLS40NDUtMi4yMjdjMC0uNzc5LjE0OC0xLjUwMy40NDUtMi4xNzFBNi40NCA2LjQ0IDAgMCAxIDkuNTIgNi43MzdhNS44NyA1Ljg3IDAgMCAxIDEuNzgxLTEuMjI1IDUuNjggNS42OCAwIDAgMSAyLjIyNy0uNDQ1Yy43NzkgMCAxLjUwMy4xNDggMi4xNzEuNDQ1czEuMjQzLjcwNSAxLjcyNiAxLjIyNWE1Ljg3IDUuODcgMCAwIDEgMS4yMjUgMS43ODFjLjI5Ny42NjguNDQ1IDEuMzkyLjQ0NSAyLjE3MXptLTIuNzgzIDBjMC0uNzc5LS4yNzgtMS40MjktLjgzNS0xLjk0OC0uNTU3LS41NTctMS4yMDYtLjgzNS0xLjk0OC0uODM1YTIuNzMgMi43MyAwIDAgMC0yLjAwNC44MzVjLS41NTcuNTItLjgzNSAxLjE2OS0uODM1IDEuOTQ4YTIuNzMgMi43MyAwIDAgMCAuODM1IDIuMDA0Yy41NTcuNTIgMS4yMjUuNzc5IDIuMDA0Ljc3OS43NDIgMCAxLjM5Mi0uMjYgMS45NDgtLjc3OWEyLjczIDIuNzMgMCAwIDAgLjgzNS0yLjAwNHpNNy4wNzEgMjIuNjU3Yy44OTEuNjMxIDEuODc0IDEuMTMyIDIuOTUgMS41MDMgMS4xMTMuMzcxIDIuMjgyLjU1NyAzLjUwNy41NTcgMS4xODggMCAyLjMxOS0uMTg2IDMuMzk2LS41NTcgMS4xMTMtLjM3MSAyLjExNS0uODcyIDMuMDA2LTEuNTAzLS4zNzEtLjY2OC0uODkxLTEuMTg4LTEuNTU5LTEuNTU5LS42MzEtLjQwOC0xLjMxNy0uNjEyLTIuMDYtLjYxMmgtNS42MjJjLS43NDIgMC0xLjQ0Ny4yMDQtMi4xMTUuNjEyLS42MzEuMzcxLTEuMTMyLjg5MS0xLjUwMyAxLjU1OXoiLz4mI3hhOzwvc3ZnPg==;fontSize=12;fontColor=#1D2D3E;" parent="n7TMKBVMU3mKDdDENP5A-54" vertex="1">
          <mxGeometry x="21" width="28" height="28" as="geometry" />
        </mxCell>
        <mxCell id="n7TMKBVMU3mKDdDENP5A-57" style="edgeStyle=orthogonalEdgeStyle;rounded=0;orthogonalLoop=1;jettySize=auto;html=1;endArrow=blockThin;endFill=1;strokeColor=#475E75;" parent="n7TMKBVMU3mKDdDENP5A-54" source="n7TMKBVMU3mKDdDENP5A-59" edge="1">
          <mxGeometry relative="1" as="geometry">
            <mxPoint x="120" y="98.5000000000002" as="targetPoint" />
          </mxGeometry>
        </mxCell>
        <mxCell id="n7TMKBVMU3mKDdDENP5A-58" style="edgeStyle=orthogonalEdgeStyle;rounded=0;orthogonalLoop=1;jettySize=auto;html=1;targetPerimeterSpacing=0;sourcePerimeterSpacing=55;endArrow=none;endFill=0;strokeColor=#188918;strokeWidth=1.5;" parent="n7TMKBVMU3mKDdDENP5A-54" source="n7TMKBVMU3mKDdDENP5A-59" target="n7TMKBVMU3mKDdDENP5A-61" edge="1">
          <mxGeometry relative="1" as="geometry" />
        </mxCell>
        <mxCell id="n7TMKBVMU3mKDdDENP5A-59" value="Application&lt;br&gt;Clients&lt;br&gt;&lt;font color=&quot;#556b82&quot; style=&quot;font-size: 10px;&quot;&gt;Mobile or Desktop&lt;/font&gt;" style="shape=image;editableCssRules=.*;verticalLabelPosition=bottom;labelBackgroundColor=none;verticalAlign=top;aspect=fixed;imageAspect=0;image=data:image/svg+xml,PHN2ZyB4bWxucz0iaHR0cDovL3d3dy53My5vcmcvMjAwMC9zdmciIHZpZXdCb3g9Ii0wLjUgLTAuNSAyOCAyMy4zNDMiIGhlaWdodD0iMjMuMzQzIiB3aWR0aD0iMjgiPiYjeGE7CSAgPHN0eWxlIHR5cGU9InRleHQvY3NzIj4uc3QwIHsgc3RvcC1jb2xvcjogcmdiKDkxLCAxMTUsIDEzOSk7IH0gLnN0MSB7IHN0b3AtY29sb3I6IHJnYigzNCwgNTMsIDcyKTsgfSA8L3N0eWxlPiYjeGE7CTxkZWZzPiYjeGE7CQk8bGluZWFyR3JhZGllbnQgZ3JhZGllbnRVbml0cz0idXNlclNwYWNlT25Vc2UiIHkyPSIyNC4yMTciIHgyPSIxOS41NCIgeTE9IjIuODEzIiB4MT0iMi4wMzkiIGlkPSJBIj4mI3hhOwkJCTxzdG9wIGNsYXNzPSJzdDAiLz4mI3hhOwkJCTxzdG9wIGNsYXNzPSJzdDEiIG9mZnNldD0iMSIvPiYjeGE7CQk8L2xpbmVhckdyYWRpZW50PiYjeGE7CTwvZGVmcz4mI3hhOwk8cGF0aCBmaWxsPSJ1cmwoI0EpIiBkPSJNMTMuNTI3IDE4LjE4NnYyLjNoMS4xNWMuNzY4IDAgMS4xNS40MDMgMS4xNSAxLjIwNi4wMDQuMTUyLS4wMjIuMzA0LS4wNzkuNDQ1cy0uMTQxLjI3LS4yNDkuMzc3Yy0uMTgyLjIxNy0uNDU2LjMyOC0uODIyLjMyOEg3LjY2NGMtLjE1Mi4wMDQtLjMwMy0uMDIzLS40NDQtLjA4cy0uMjY5LS4xNDItLjM3Ni0uMjUtLjE5My0uMjM1LS4yNS0uMzc2LS4wODQtLjI5Mi0uMDgtLjQ0NGMwLS4zNjYuMTEtLjY1Ny4zMy0uODc3LjEwNy0uMTA4LjIzNS0uMTkzLjM3Ni0uMjVzLjI5Mi0uMDg0LjQ0NC0uMDhoMy41MDd2LTIuM0gzLjAwN2EzLjUzIDMuNTMgMCAwIDEtMi41MjEtLjk4NyAzLjUzIDMuNTMgMCAwIDEtLjk4NS0yLjUxOVYzLjAwOWMwLS45ODcuMzMtMS44MDkuOTg3LTIuNDY3LjMyNy0uMzM2LjcxOS0uNjAyIDEuMTUyLS43ODJzLjg5OS0uMjY4IDEuMzY4LS4yNmgxOC42ODNBMy4yNSAzLjI1IDAgMCAxIDI0LjE1Ni41NDJjLjY5NC42NTggMS4wNDEgMS40OCAxLjA0MSAyLjQ2NXYyLjM1NmMuMDA0LjE1Mi0uMDIyLjMwNC0uMDc5LjQ0NXMtLjE0MS4yNy0uMjQ5LjM3N2MtLjExNi4xMTItLjI1NC4xOTgtLjQwNC4yNTVzLS4zMTEuMDgyLS40NzIuMDc1Yy0uMTUyLjAwNC0uMzA0LS4wMjMtLjQ0NS0uMDhzLS4yNy0uMTQyLS4zNzctLjI1LS4xOTMtLjIzNi0uMjUtLjM3Ny0uMDg0LS4yOTMtLjA4LS40NDVWMy4wMDljMC0uNzY4LS4zODItMS4xNTItMS4xNS0xLjE1MkgzLjAwN2MtLjc2OCAwLTEuMTUuMzg0LTEuMTUgMS4xNXYxMS42NzJjMCAuNzY2LjM4MiAxLjE1IDEuMTUgMS4xNWgxMS42N2MuNzY4IDAgMS4xNS40MDMgMS4xNSAxLjIwNi4wMDQuMTUyLS4wMjMuMzAzLS4wNzkuNDQ0cy0uMTQxLjI2OS0uMjQ5LjM3NmMtLjE4Mi4yMTktLjQ1Ni4zMy0uODIyLjMzem0xMi44MjItOS4zN2MuNzY2IDAgMS4xNS40MDMgMS4xNSAxLjIwNnYxMS42N2MuMDA0LjE1Mi0uMDIzLjMwNC0uMDguNDQ1cy0uMTQyLjI3LS4yNS4zNzdjLS4xODIuMjE3LS40NTYuMzI4LS44MjIuMzI4aC03LjAxM2MtLjE1Mi4wMDQtLjMwMy0uMDIzLS40NDQtLjA4cy0uMjY5LS4xNDItLjM3Ni0uMjUtLjE5My0uMjM1LS4yNS0uMzc2LS4wODQtLjI5Mi0uMDgtLjQ0NHYtMTEuNjdjMC0uMzY2LjExLS42NTcuMzMtLjg3Ny4xMDctLjEwOC4yMzYtLjE5My4zNzctLjI1cy4yOTMtLjA4NC40NDUtLjA4em0tNS44MDkgMi4zNTZ2OC4xNjNoNC42NTd2LTguMTY0eiIvPiYjeGE7PC9zdmc+;html=1;fontColor=#1D2D3E;" parent="n7TMKBVMU3mKDdDENP5A-54" vertex="1">
          <mxGeometry x="21" y="87" width="28" height="23" as="geometry" />
        </mxCell>
        <mxCell id="n7TMKBVMU3mKDdDENP5A-60" style="edgeStyle=orthogonalEdgeStyle;rounded=0;orthogonalLoop=1;jettySize=auto;html=1;endArrow=blockThin;endFill=1;strokeWidth=1.5;strokeColor=#188918;endSize=4;startSize=4;" parent="n7TMKBVMU3mKDdDENP5A-54" source="n7TMKBVMU3mKDdDENP5A-61" edge="1">
          <mxGeometry relative="1" as="geometry">
            <mxPoint x="120" y="248.99999999999997" as="targetPoint" />
          </mxGeometry>
        </mxCell>
        <mxCell id="n7TMKBVMU3mKDdDENP5A-61" value="SAML2/OIDC" style="rounded=1;whiteSpace=wrap;html=1;strokeColor=#188918;strokeWidth=1.5;arcSize=16;fillColor=#F5FAE5;perimeterSpacing=0;absoluteArcSize=1;fontColor=#188918;fontSize=10;fontStyle=1" parent="n7TMKBVMU3mKDdDENP5A-54" vertex="1">
          <mxGeometry y="240.99999999999997" width="70" height="16" as="geometry" />
        </mxCell>
        <mxCell id="n7TMKBVMU3mKDdDENP5A-62" value="HTTPS" style="rounded=1;whiteSpace=wrap;html=1;strokeColor=#475E75;strokeWidth=1.5;arcSize=16;fillColor=#FFFFFF;perimeterSpacing=0;absoluteArcSize=1;fontColor=#475E75;fontSize=10;fontStyle=1" parent="1" vertex="1">
          <mxGeometry x="-283.5" y="340.1" width="51" height="16" as="geometry" />
        </mxCell>
        <mxCell id="n7TMKBVMU3mKDdDENP5A-64" value="&lt;span style=&quot;font-family: Helvetica; font-style: normal; font-variant-ligatures: normal; font-variant-caps: normal; font-weight: 700; letter-spacing: normal; orphans: 2; text-indent: 0px; text-transform: none; widows: 2; word-spacing: 0px; -webkit-text-stroke-width: 0px; text-decoration-thickness: initial; text-decoration-style: initial; text-decoration-color: initial; float: none; font-size: 10px; display: inline !important;&quot;&gt;&lt;font style=&quot;font-size: 10px;&quot;&gt;SAP Integrated Business Planning&lt;/font&gt;&lt;/span&gt;" style="text;whiteSpace=wrap;html=1;align=left;container=0;verticalAlign=middle;fontColor=#1D2D3E;fontSize=10;" parent="1" vertex="1">
          <mxGeometry x="-183" y="420.72" width="173" height="24.57" as="geometry" />
        </mxCell>
        <mxCell id="n7TMKBVMU3mKDdDENP5A-65" value="&lt;span style=&quot;font-family: Helvetica; font-style: normal; font-variant-ligatures: normal; font-variant-caps: normal; font-weight: 700; letter-spacing: normal; orphans: 2; text-indent: 0px; text-transform: none; widows: 2; word-spacing: 0px; -webkit-text-stroke-width: 0px; text-decoration-thickness: initial; text-decoration-style: initial; text-decoration-color: initial; float: none; font-size: 10px; display: inline !important;&quot;&gt;&lt;font style=&quot;font-size: 10px;&quot;&gt;SAP SuccessFactors&lt;/font&gt;&lt;/span&gt;" style="text;whiteSpace=wrap;html=1;align=left;container=0;verticalAlign=middle;fontColor=#1D2D3E;fontSize=10;" parent="1" vertex="1">
          <mxGeometry x="-183" y="441.6084421519182" width="151.25" height="24.57146471685887" as="geometry" />
        </mxCell>
        <mxCell id="n7TMKBVMU3mKDdDENP5A-68" value="" style="shape=image;editableCssRules=.*;part=0;verticalLabelPosition=bottom;labelBackgroundColor=default;verticalAlign=top;imageAspect=0;image=data:image/svg+xml,PHN2ZyB4bWxucz0iaHR0cDovL3d3dy53My5vcmcvMjAwMC9zdmciIHZpZXdCb3g9Ii0wLjUgLTAuNSAyOCAxOC40MTIiIGhlaWdodD0iMTguNDEyIiB3aWR0aD0iMjgiPiYjeGE7CSAgPHN0eWxlIHR5cGU9InRleHQvY3NzIj4uc3QwIHsgc3RvcC1jb2xvcjogcmdiKDM1LCAxNDksIDI1NSk7IH0gLnN0MSB7IHN0b3AtY29sb3I6IHJnYigwLCA4NywgMjEwKTsgfSA8L3N0eWxlPiYjeGE7CTxkZWZzPiYjeGE7CQk8bGluZWFyR3JhZGllbnQgZ3JhZGllbnRVbml0cz0idXNlclNwYWNlT25Vc2UiIHkyPSIyMi4wMDgiIHgyPSIxNC44NjkiIHkxPSIyLjExMyIgeDE9IjIuMDM5IiBpZD0iQSI+JiN4YTsJCQk8c3RvcCBjbGFzcz0ic3QwIi8+JiN4YTsJCQk8c3RvcCBjbGFzcz0ic3QxIiBvZmZzZXQ9IjEiLz4mI3hhOwkJPC9saW5lYXJHcmFkaWVudD4mI3hhOwk8L2RlZnM+JiN4YTsJPHBhdGggZmlsbD0idXJsKCNBKSIgZD0iTTUuOTAzIDYuMDQ3QzYuNDM0IDIuMzQ1IDkuNjE5LS41IDEzLjQ2Ny0uNWMyLjgwMSAwIDUuMjQ3IDEuNTA2IDYuNTc3IDMuNzQ5aC4xMjRjNC4wNDkgMCA3LjMzMSAzLjI4MiA3LjMzMSA3LjMzMXMtMy4yODIgNy4zMzEtNy4zMzEgNy4zMzFoLTQuMDU0Yy0uMDg3IDAtLjE3My0uMDAyLS4yNTktLjAwNS0uMDc4LjAwMy0uMTU1LjAwNS0uMjMzLjAwNUg1LjQzMmMtMy4yNzYgMC01LjkzMi0yLjY1Ni01LjkzMi01LjkzMnMyLjY1Ni01LjkzMiA1LjkzMi01LjkzMnpNMTMuNDY3IDIuM2MtMi42NzQgMC00Ljg0MiAyLjE2OC00Ljg0MiA0Ljg0MmE0Ljk0IDQuOTQgMCAwIDAgLjAwNi4yMzggMS40IDEuNCAwIDAgMS0xLjM5OCAxLjQ2N2gtMS44Yy0xLjczIDAtMy4xMzIgMS40MDItMy4xMzIgMy4xMzJzMS40MDIgMy4xMzIgMy4xMzIgMy4xMzJoMTAuMTlhMy4xNCAzLjE0IDAgMCAwIC4xNi0uMDA0IDEuMzkgMS4zOSAwIDAgMSAuMTMxIDBjLjA2Ny4wMDMuMTM0LjAwNC4yMDIuMDA0aDQuMDU0YTQuNTMgNC41MyAwIDEgMCAwLTkuMDYyaC0uOTc3YTEuNCAxLjQgMCAwIDEtMS4yODMtLjg0QzE3LjE2MSAzLjQ5NCAxNS40NTIgMi4zIDEzLjQ2NyAyLjN6IiBmaWxsLXJ1bGU9ImV2ZW5vZGQiLz4mI3hhOzwvc3ZnPg==;labelPosition=center;align=left;fontSize=16;fontStyle=1;spacingLeft=0;" parent="1" vertex="1">
          <mxGeometry x="-183" y="269.37" width="34" height="22" as="geometry">
            <mxPoint x="260" y="-186" as="offset" />
          </mxGeometry>
        </mxCell>
        <mxCell id="n7TMKBVMU3mKDdDENP5A-69" value="&lt;span style=&quot;color: rgb(0, 0, 0); font-family: Helvetica; font-size: 16px; font-style: normal; font-variant-ligatures: normal; font-variant-caps: normal; font-weight: 700; letter-spacing: normal; orphans: 2; text-align: left; text-indent: 0px; text-transform: none; widows: 2; word-spacing: 0px; -webkit-text-stroke-width: 0px; white-space: nowrap; background-color: rgb(255, 255, 255); text-decoration-thickness: initial; text-decoration-style: initial; text-decoration-color: initial; display: inline !important; float: none;&quot;&gt;SAP Cloud Solutions&lt;/span&gt;" style="text;whiteSpace=wrap;html=1;" parent="1" vertex="1">
          <mxGeometry x="-183" y="291.26" width="164" height="40" as="geometry" />
        </mxCell>
        <mxCell id="n7TMKBVMU3mKDdDENP5A-70" value="" style="endArrow=none;html=1;strokeColor=#5B738B;bendable=1;rounded=0;endFill=0;endSize=4;strokeWidth=3;startSize=4;startArrow=none;startFill=0;jumpStyle=gap;" parent="1" edge="1">
          <mxGeometry width="50" height="50" relative="1" as="geometry">
            <mxPoint x="-225" y="50" as="sourcePoint" />
            <mxPoint x="-225" y="620" as="targetPoint" />
            <Array as="points" />
          </mxGeometry>
        </mxCell>
        <mxCell id="n7TMKBVMU3mKDdDENP5A-6" value="" style="rounded=1;whiteSpace=wrap;html=1;strokeColor=#0070F2;fillColor=#ffffff;arcSize=24;absoluteArcSize=1;imageWidth=64;imageHeight=64;strokeWidth=1.5;part=1;verticalAlign=top;align=left;fontSize=16;fontStyle=1;spacingLeft=10;spacingTop=10;" parent="1" vertex="1">
          <mxGeometry x="-975" y="247.45522388059703" width="310" height="155.97" as="geometry" />
        </mxCell>
        <mxCell id="n7TMKBVMU3mKDdDENP5A-7" value="SAP Build Work Zone (foundation)&lt;br&gt;&lt;span style=&quot;font-weight: normal;&quot;&gt;&lt;font style=&quot;font-size: 12px;&quot;&gt;BTP Service&lt;/font&gt;&lt;/span&gt;" style="shape=mxgraph.sap.icon;labelPosition=right;verticalLabelPosition=middle;align=left;verticalAlign=middle;strokeWidth=1;strokeColor=#D5DADD;fillColor=#EDEFF0;gradientColor=#FCFCFC;gradientDirection=west;aspect=fixed;SAPIcon=SAP_Build_Work_Zone_-_Standard_Edition;fontSize=16;fontStyle=1;html=1;spacingLeft=10;spacing=0;" parent="1" vertex="1">
          <mxGeometry x="-971.36" y="193.47716417910448" width="32" height="32" as="geometry" />
        </mxCell>
        <mxCell id="n7TMKBVMU3mKDdDENP5A-10" value="Mobile&#xa;Services" style="shape=mxgraph.sap.icon;labelPosition=center;verticalLabelPosition=bottom;align=center;verticalAlign=top;strokeWidth=1;strokeColor=#D5DADD;fillColor=#EDEFF0;gradientColor=#FCFCFC;gradientDirection=west;aspect=fixed;SAPIcon=SAP_Mobile_Services" parent="1" vertex="1">
          <mxGeometry x="-740.79" y="264.9962686567164" width="32" height="32" as="geometry" />
        </mxCell>
        <mxCell id="n7TMKBVMU3mKDdDENP5A-13" value="User Store" style="rounded=1;whiteSpace=wrap;html=1;strokeColor=#0070F2;strokeWidth=1.5;arcSize=16;fillColor=#EBF8FF;perimeterSpacing=0;absoluteArcSize=1;fontColor=#0070F2;fontSize=11;fontStyle=0" parent="1" vertex="1">
          <mxGeometry x="-855" y="354.09701492537306" width="70" height="19.731343283582085" as="geometry" />
        </mxCell>
        <mxCell id="n7TMKBVMU3mKDdDENP5A-14" value="UI Theme&#xa;Designer" style="shape=image;verticalLabelPosition=bottom;labelBackgroundColor=default;verticalAlign=top;aspect=fixed;imageAspect=0;image=data:image/svg+xml,PHN2ZyB4bWxucz0iaHR0cDovL3d3dy53My5vcmcvMjAwMC9zdmciIGZpbGw9Im5vbmUiIHZpZXdCb3g9IjAgMCAxNiAxNiIgaGVpZ2h0PSIxNiIgd2lkdGg9IjE2Ij4mI3hhOzxjaXJjbGUgc3Ryb2tlLXdpZHRoPSIwLjI4NTcwOCIgc3Ryb2tlPSIjRDVEQUREIiBmaWxsPSJ1cmwoI3BhaW50MF9saW5lYXJfMzg5MF8yMTUzNCkiIHI9IjcuODU2OTYiIGN5PSI3Ljk5NzM4IiBjeD0iNy45OTc4NiIvPiYjeGE7PGcgY2xpcC1wYXRoPSJ1cmwoI2NsaXAwXzM4OTBfMjE1MzQpIj4mI3hhOzxwYXRoIGZpbGw9InVybCgjcGFpbnQxX2xpbmVhcl8zODkwXzIxNTM0KSIgZD0iTTEwLjY4NjQgMTIuOTE5NEMxMC44NjI1IDEyLjkyMTIgMTEuMDQxMyAxMi44NzgxIDExLjIwNDkgMTIuNzg1M0wxMi41MjcyIDEyLjAzNTNDMTMuMDE0MSAxMS43NTkyIDEzLjE4MDkgMTEuMTQ3NiAxMi44OTk4IDEwLjY2OTNMMTAuNzM2NyA2Ljk4ODdDMTAuNTYwMiA2LjY4ODM4IDEwLjI0OTEgNi41MTIwMyA5LjkyMTQ5IDYuNDkwNzJMMTEuMTgwNyAxMS4xMDc1QzExLjM2MzYgMTEuNzc4MSAxMS4xNTIzIDEyLjQ2MTIgMTAuNjg2NCAxMi45MTk0WiIvPiYjeGE7PHBhdGggZmlsbD0idXJsKCNwYWludDJfbGluZWFyXzM4OTBfMjE1MzQpIiBkPSJNOS44NDA5NSAxMi40NjJDOS44MzE3OSAxMi40NDgxIDkuODIyOTQgMTIuNDMzOCA5LjgxNDQgMTIuNDE5M0w4LjczMjg2IDEwLjU3OUw4LjY4NTA2IDYuOTk3NjhMOS4wNzcwMiA2Ljc3NTM2TDEwLjMyMDQgMTEuMzM0QzEwLjQ0MjkgMTEuNzgzIDEwLjIzNCAxMi4yNDI1IDkuODQwOTUgMTIuNDYyWiIvPiYjeGE7PHBhdGggZmlsbD0idXJsKCNwYWludDNfbGluZWFyXzM4OTBfMjE1MzQpIiBkPSJNNy45MzU1MSAxMi45ODFDNy45OTM0NCAxMi45NzYzIDguMDUxNzIgMTIuOTY2NCA4LjEwOTggMTIuOTUxMUw5LjYxNzAyIDEyLjU1NDRDMTAuMTUxMSAxMi40MTM4IDEwLjQ2NjMgMTEuODY3OSAxMC4zMjA5IDExLjMzNTFMOC44NzEyOCA2LjAyMDE0QzguNzc5MDYgNS42ODIwNCA4LjUyMzU4IDUuNDMwNDUgOC4yMTI3IDUuMzI3NjRWMTIuMDA3NEM4LjIxMjcgMTIuMzYzOSA4LjExMTM5IDEyLjY5NzIgNy45MzU1MSAxMi45ODFaIi8+JiN4YTs8cGF0aCBmaWxsPSJ1cmwoI3BhaW50NF9saW5lYXJfMzg5MF8yMTUzNCkiIGQ9Ik03LjA5MzMxIDEyLjYzOUM2Ljk5NTU5IDEyLjUyNzYgNi45MjEwOCAxMi4zOTMgNi44Nzk2IDEyLjI0MDlMNS40Mjk5NCA2LjkyNjAxQzUuMjg0NjIgNi4zOTMxOSA1LjU5OTc3IDUuODQ3MjggNi4xMzM4NiA1LjcwNjY5TDcuMzIyMDIgNS4zOTM5M1YxMi4wMDc0QzcuMzIyMDIgMTIuMjQ2OSA3LjIzNjI4IDEyLjQ2NjggNy4wOTMzMSAxMi42MzlaIi8+JiN4YTs8cGF0aCBmaWxsPSJ1cmwoI3BhaW50NV9saW5lYXJfMzg5MF8yMTUzNCkiIGQ9Ik00Ljc1OTI4IDMuMDA3MzJDNC4yMDY5OSAzLjAwNzMyIDMuNzU5MjggMy40NTUwNCAzLjc1OTI4IDQuMDA3MzJWMTIuMDA3M0MzLjc1OTI4IDEyLjU1OTYgNC4yMDY5OSAxMy4wMDczIDQuNzU5MjggMTMuMDA3M0g2LjMyMjAxQzYuODc0MjkgMTMuMDA3MyA3LjMyMjAxIDEyLjU1OTYgNy4zMjIwMSAxMi4wMDczVjQuMDA3MzJDNy4zMjIwMSAzLjQ1NTA0IDYuODc0MjkgMy4wMDczMiA2LjMyMjAxIDMuMDA3MzJINC43NTkyOFpNNi4wNDEyMSA0LjczNjI3QzYuMDQxMjEgNS4wMTI0MSA1LjgxMzM0IDUuMjM2MjcgNS41MzIyNSA1LjIzNjI3QzUuMjUxMTYgNS4yMzYyNyA1LjAyMzI5IDUuMDEyNDEgNS4wMjMyOSA0LjczNjI3QzUuMDIzMjkgNC40NjAxMiA1LjI1MTE2IDQuMjM2MjcgNS41MzIyNSA0LjIzNjI3QzUuODEzMzQgNC4yMzYyNyA2LjA0MTIxIDQuNDYwMTIgNi4wNDEyMSA0LjczNjI3WiIgY2xpcC1ydWxlPSJldmVub2RkIiBmaWxsLXJ1bGU9ImV2ZW5vZGQiLz4mI3hhOzwvZz4mI3hhOzxkZWZzPiYjeGE7PGxpbmVhckdyYWRpZW50IGdyYWRpZW50VW5pdHM9InVzZXJTcGFjZU9uVXNlIiB5Mj0iMTQuNzQ1MyIgeDI9IjEzLjY4NTkiIHkxPSIyLjI2ODQ1IiB4MT0iMS40NDg5NyIgaWQ9InBhaW50MF9saW5lYXJfMzg5MF8yMTUzNCI+JiN4YTs8c3RvcCBzdG9wLWNvbG9yPSJ3aGl0ZSIvPiYjeGE7PHN0b3Agc3RvcC1jb2xvcj0iI0VBRUNFRSIgb2Zmc2V0PSIxIi8+JiN4YTs8L2xpbmVhckdyYWRpZW50PiYjeGE7PGxpbmVhckdyYWRpZW50IGdyYWRpZW50VW5pdHM9InVzZXJTcGFjZU9uVXNlIiB5Mj0iMTAuMjgxMSIgeDI9IjEzLjUxNDIiIHkxPSI3LjQ1NTI0IiB4MT0iOS4zMzYyNyIgaWQ9InBhaW50MV9saW5lYXJfMzg5MF8yMTUzNCI+JiN4YTs8c3RvcCBzdG9wLWNvbG9yPSIjMDBCQkZGIi8+JiN4YTs8c3RvcCBzdG9wLWNvbG9yPSIjMDA4QkZGIiBvZmZzZXQ9IjEiLz4mI3hhOzwvbGluZWFyR3JhZGllbnQ+JiN4YTs8bGluZWFyR3JhZGllbnQgZ3JhZGllbnRVbml0cz0idXNlclNwYWNlT25Vc2UiIHkyPSIxMC4yODExIiB4Mj0iMTMuNTE0MiIgeTE9IjcuNDU1MjQiIHgxPSI5LjMzNjI3IiBpZD0icGFpbnQyX2xpbmVhcl8zODkwXzIxNTM0Ij4mI3hhOzxzdG9wIHN0b3AtY29sb3I9IiMwMEJCRkYiLz4mI3hhOzxzdG9wIHN0b3AtY29sb3I9IiMwMDhCRkYiIG9mZnNldD0iMSIvPiYjeGE7PC9saW5lYXJHcmFkaWVudD4mI3hhOzxsaW5lYXJHcmFkaWVudCBncmFkaWVudFVuaXRzPSJ1c2VyU3BhY2VPblVzZSIgeTI9IjkuNjQyOTkiIHgyPSIxMS4wMjY1IiB5MT0iNi40NTM2MiIgeDE9IjYuMTI4MSIgaWQ9InBhaW50M19saW5lYXJfMzg5MF8yMTUzNCI+JiN4YTs8c3RvcCBzdG9wLWNvbG9yPSIjMTM0OEZGIi8+JiN4YTs8c3RvcCBzdG9wLWNvbG9yPSIjMDYyMzhEIiBvZmZzZXQ9IjEiLz4mI3hhOzwvbGluZWFyR3JhZGllbnQ+JiN4YTs8bGluZWFyR3JhZGllbnQgZ3JhZGllbnRVbml0cz0idXNlclNwYWNlT25Vc2UiIHkyPSI5LjY0Mjk5IiB4Mj0iMTEuMDI2NSIgeTE9IjYuNDUzNjIiIHgxPSI2LjEyODEiIGlkPSJwYWludDRfbGluZWFyXzM4OTBfMjE1MzQiPiYjeGE7PHN0b3Agc3RvcC1jb2xvcj0iIzEzNDhGRiIvPiYjeGE7PHN0b3Agc3RvcC1jb2xvcj0iIzA2MjM4RCIgb2Zmc2V0PSIxIi8+JiN4YTs8L2xpbmVhckdyYWRpZW50PiYjeGE7PGxpbmVhckdyYWRpZW50IGdyYWRpZW50VW5pdHM9InVzZXJTcGFjZU9uVXNlIiB5Mj0iNi4wODEwNSIgeDI9IjguNzIxOCIgeTE9IjQuNTAyNzYiIHgxPSI0LjI5MzM1IiBpZD0icGFpbnQ1X2xpbmVhcl8zODkwXzIxNTM0Ij4mI3hhOzxzdG9wIHN0b3AtY29sb3I9IiMwMTk1RkYiLz4mI3hhOzxzdG9wIHN0b3AtY29sb3I9IiMxMTQ3RTkiIG9mZnNldD0iMC45OTEwMjgiLz4mI3hhOzwvbGluZWFyR3JhZGllbnQ+JiN4YTs8Y2xpcFBhdGggaWQ9ImNsaXAwXzM4OTBfMjE1MzQiPiYjeGE7PHJlY3QgdHJhbnNmb3JtPSJ0cmFuc2xhdGUoMy4zOTc5NSAyLjk5NzU2KSIgZmlsbD0id2hpdGUiIGhlaWdodD0iMTAiIHdpZHRoPSIxMCIvPiYjeGE7PC9jbGlwUGF0aD4mI3hhOzwvZGVmcz4mI3hhOzwvc3ZnPg==;fontColor=#1D2D3E;" parent="1" vertex="1">
          <mxGeometry x="-800" y="265" width="32" height="32" as="geometry" />
        </mxCell>
        <mxCell id="n7TMKBVMU3mKDdDENP5A-17" value="User and role provisioning" style="edgeStyle=elbowEdgeStyle;rounded=0;orthogonalLoop=1;jettySize=auto;html=1;endArrow=blockThin;endFill=1;strokeWidth=1.5;strokeColor=#470BED;endSize=4;startSize=4;entryX=0.5;entryY=1;entryDx=0;entryDy=0;align=right;fontColor=#1D2D3E;fontSize=10;spacingRight=5;" parent="1" target="n7TMKBVMU3mKDdDENP5A-13" edge="1">
          <mxGeometry x="0.6364" relative="1" as="geometry">
            <mxPoint x="-820" y="439.12985074626863" as="targetPoint" />
            <mxPoint x="-820" y="496.3507462686566" as="sourcePoint" />
            <mxPoint as="offset" />
          </mxGeometry>
        </mxCell>
        <mxCell id="n7TMKBVMU3mKDdDENP5A-18" value="SCIM" style="rounded=1;whiteSpace=wrap;html=1;strokeColor=#470BED;strokeWidth=1.5;arcSize=16;fillColor=#F1ECFF;perimeterSpacing=0;absoluteArcSize=1;fontColor=#470BED;fontSize=10;fontStyle=1" parent="1" vertex="1">
          <mxGeometry x="-840" y="456.8880597014926" width="40" height="15.785074626865672" as="geometry" />
        </mxCell>
        <mxCell id="n7TMKBVMU3mKDdDENP5A-78" value="Navigation&#xa;Service" style="shape=image;editableCssRules=.*;verticalLabelPosition=bottom;labelBackgroundColor=default;verticalAlign=top;aspect=fixed;imageAspect=0;image=data:image/svg+xml,PHN2ZyB4bWxucz0iaHR0cDovL3d3dy53My5vcmcvMjAwMC9zdmciIHZpZXdCb3g9Ii0wLjUgLTAuNSAyNS4yIDI4IiBoZWlnaHQ9IjI4IiB3aWR0aD0iMjUuMiI+JiN4YTsJICA8c3R5bGUgdHlwZT0idGV4dC9jc3MiPiYjeGE7CQkuc3Qwe3N0b3AtY29sb3I6IzAwY2VhYzt9JiN4YTsJCS5zdDF7c3RvcC1jb2xvcjojMDc4MzhmO30mI3hhOwkgIDwvc3R5bGU+JiN4YTsJPGRlZnM+JiN4YTsJCTxsaW5lYXJHcmFkaWVudCBncmFkaWVudFVuaXRzPSJ1c2VyU3BhY2VPblVzZSIgeTI9IjIzLjA1NyIgeDI9IjIzLjEyNiIgeTE9IjMuNDc0IiB4MT0iMS43ODUiIGlkPSJBIj4mI3hhOwkJCTxzdG9wIGNsYXNzPSJzdDAiLz4mI3hhOwkJCTxzdG9wIGNsYXNzPSJzdDEiIG9mZnNldD0iMSIvPiYjeGE7CQk8L2xpbmVhckdyYWRpZW50PiYjeGE7CTwvZGVmcz4mI3hhOwk8cGF0aCBmaWxsPSJ1cmwoI0EpIiBkPSJNMTEuNzU3LS40ODNDMTEuNDQ1LS40MDEuMTg0IDQuNzExLjAyIDQuODM3YTEuNzkgMS43OSAwIDAgMC0uMzU2LjQ3MWwtLjE2NC4zMjN2Ny44ODJWMjEuNGwuMTM3LjI2OGMuMDc3LjE0OC4yMjQuMzQ1LjMzOS40MzguMTMxLjExNSAyLjE3MiAxLjA2MiA1Ljk1OSAyLjc2NCA2LjE4MyAyLjc4MSA2LjA3NCAyLjczNyA2LjU3NyAyLjU2Mi4zOTktLjEzNyAxMS4zNy01LjA4NSAxMS41OTUtNS4yMjcuMjMtLjE0OC40Ni0uNDYuNTM2LS43MjguMDgyLS4yNzQuMDcxLTE1LjY2NS0uMDA2LTE1Ljk1LS4wODItLjI4NS0uMzM0LS42MzUtLjU1OC0uNzY2LS4wOTMtLjA2LTIuNzM2LTEuMjY0LTUuODY2LTIuNjcxLTUuMTYtMi4zMjYtNS43MjQtMi41NjctNi4wMTktMi41ODQtLjE4MS0uMDExLS4zNzgtLjAwNS0uNDM4LjAxMXptNC4yMjQgNC42NTNsMy44MDggMS43NzNjLS4wNjYuMDY2LTcuNTg0IDMuNDQ4LTcuNjc3IDMuNDU0YTM0OS43NSAzNDkuNzUgMCAwIDEtNy43MjYtMy40NTRjLS4wMzMtLjAyNyA3LjU3My0zLjQ5MiA3LjY5My0zLjUwMy4wMjctLjAwNSAxLjc4NC43NzIgMy45MDEgMS43M3ptLTkuNDIzIDUuODQ2bDQuMTMxIDEuODYxdjYuMDA1bC0uMDM4IDYuMDFjLS4wMTYgMC0xLjkwNC0uODQzLTQuMTg2LTEuODY3bC00LjE0OC0xLjg3MnYtNi4wMTVsLjA1NS01Ljk5OWMuMDI3LjAwNSAxLjkxLjg1NCA0LjE4NiAxLjg3N3ptMTUuMzQ5IDQuMTIydjYuMDFsLTQuMTE1IDEuODU1LTQuMjEzIDEuODc4Yy0uMDkzLjAyMi0uMDk4LS4yNzQtLjA4OC01Ljk4OGwuMDE2LTYuMDEgNC4xNTgtMS44NzcgNC4yMDMtMS44NzdjLjAyMiAwIC4wMzggMi43MDQuMDM4IDYuMDF6Ii8+JiN4YTs8L3N2Zz4=;" parent="1" vertex="1">
          <mxGeometry x="-864.66" y="269.37731343283576" width="24.66417910447761" height="27.62388059701492" as="geometry" />
        </mxCell>
        <mxCell id="Vf0blvrW2W4Uam2qfTRM-1" value="" style="rounded=0;whiteSpace=wrap;html=1;strokeColor=#eaecee;strokeWidth=1.5;arcSize=16;fillColor=#FFFFFF;perimeterSpacing=0;imageHeight=24;absoluteArcSize=1;points=[];connectable=0;container=0;" parent="1" vertex="1">
          <mxGeometry x="-338" y="682" width="323" height="114" as="geometry" />
        </mxCell>
        <mxCell id="Vf0blvrW2W4Uam2qfTRM-2" value="&lt;font size=&quot;1&quot; style=&quot;&quot; face=&quot;arial&quot; color=&quot;#1d2d3e&quot;&gt;&lt;b style=&quot;font-size: 12px;&quot;&gt;Legend&lt;/b&gt;&lt;/font&gt;" style="text;html=1;align=left;verticalAlign=top;resizable=0;points=[];autosize=1;strokeColor=none;fillColor=none;fontSize=12;fontColor=default;fontFamily=Helvetica;" parent="1" vertex="1">
          <mxGeometry x="-317.0017948717948" y="691" width="61" height="26" as="geometry" />
        </mxCell>
        <mxCell id="Vf0blvrW2W4Uam2qfTRM-3" value="&lt;div style=&quot;font-size: 10px; line-height: 100%;&quot;&gt;&lt;span style=&quot;font-family: arial; font-size: 10px; background-color: initial;&quot;&gt;&lt;font style=&quot;font-size: 10px;&quot;&gt;Access&lt;/font&gt;&lt;/span&gt;&lt;/div&gt;" style="text;html=1;align=left;verticalAlign=middle;resizable=0;points=[];autosize=1;strokeColor=none;fillColor=none;fontSize=10;fontColor=#1D2D3E;fontFamily=Helvetica;labelPosition=center;verticalLabelPosition=middle;" parent="1" vertex="1">
          <mxGeometry x="-298.1300000000001" y="761" width="50" height="23" as="geometry" />
        </mxCell>
        <mxCell id="Vf0blvrW2W4Uam2qfTRM-4" value="" style="ellipse;whiteSpace=wrap;html=1;aspect=fixed;strokeColor=none;fillColor=#475E75;fontColor=#475E75;" parent="1" vertex="1">
          <mxGeometry x="-316.6300000000001" y="765.5" width="16" height="16" as="geometry" />
        </mxCell>
        <mxCell id="Vf0blvrW2W4Uam2qfTRM-5" value="" style="ellipse;whiteSpace=wrap;html=1;aspect=fixed;strokeColor=none;fillColor=#188918;" parent="1" vertex="1">
          <mxGeometry x="-317" y="742.5" width="16" height="16" as="geometry" />
        </mxCell>
        <mxCell id="Vf0blvrW2W4Uam2qfTRM-6" value="&lt;div style=&quot;font-size: 10px; line-height: 100%;&quot;&gt;&lt;span style=&quot;font-family: arial; font-size: 10px; background-color: initial;&quot;&gt;&lt;font style=&quot;font-size: 10px;&quot;&gt;Authentication&lt;/font&gt;&lt;/span&gt;&lt;/div&gt;" style="text;html=1;align=left;verticalAlign=middle;resizable=0;points=[];autosize=1;strokeColor=none;fillColor=none;fontSize=10;fontColor=#1D2D3E;fontFamily=Helvetica;labelPosition=center;verticalLabelPosition=middle;" parent="1" vertex="1">
          <mxGeometry x="-298.5" y="738" width="81" height="23" as="geometry" />
        </mxCell>
        <mxCell id="Vf0blvrW2W4Uam2qfTRM-7" value="" style="ellipse;whiteSpace=wrap;html=1;aspect=fixed;strokeColor=none;fillColor=#7F00FF;fontColor=#475E75;" parent="1" vertex="1">
          <mxGeometry x="-316.6300000000001" y="719.5" width="16" height="16" as="geometry" />
        </mxCell>
        <mxCell id="Vf0blvrW2W4Uam2qfTRM-8" value="&lt;div style=&quot;font-size: 10px; line-height: 100%;&quot;&gt;&lt;span style=&quot;font-family: arial; font-size: 10px; background-color: initial;&quot;&gt;&lt;font style=&quot;font-size: 10px;&quot;&gt;Provisioning&lt;/font&gt;&lt;/span&gt;&lt;/div&gt;" style="text;html=1;align=left;verticalAlign=middle;resizable=0;points=[];autosize=1;strokeColor=none;fillColor=none;fontSize=10;fontColor=#1D2D3E;fontFamily=Helvetica;labelPosition=center;verticalLabelPosition=middle;" parent="1" vertex="1">
          <mxGeometry x="-293.3000000000002" y="715" width="72" height="23" as="geometry" />
        </mxCell>
        <mxCell id="Vf0blvrW2W4Uam2qfTRM-9" value="&lt;div style=&quot;font-size: 10px; line-height: 100%;&quot;&gt;&lt;span style=&quot;font-family: arial; font-size: 10px; background-color: initial;&quot;&gt;&lt;font style=&quot;font-size: 10px;&quot;&gt;Deployment&lt;/font&gt;&lt;/span&gt;&lt;/div&gt;" style="text;html=1;align=left;verticalAlign=middle;resizable=0;points=[];autosize=1;strokeColor=none;fillColor=none;fontSize=10;fontColor=#1D2D3E;fontFamily=Helvetica;labelPosition=center;verticalLabelPosition=middle;" parent="1" vertex="1">
          <mxGeometry x="-199.33000000000015" y="712.5" width="71" height="23" as="geometry" />
        </mxCell>
        <mxCell id="Vf0blvrW2W4Uam2qfTRM-10" value="" style="ellipse;whiteSpace=wrap;html=1;aspect=fixed;strokeColor=none;fillColor=#0070F2;fontColor=#0070F2;" parent="1" vertex="1">
          <mxGeometry x="-220.66000000000008" y="717" width="16" height="16" as="geometry" />
        </mxCell>
        <mxCell id="Vf0blvrW2W4Uam2qfTRM-11" value="" style="shape=image;verticalLabelPosition=bottom;verticalAlign=top;imageAspect=0;aspect=fixed;image=data:image/svg+xml,PHN2ZyB4bWxucz0iaHR0cDovL3d3dy53My5vcmcvMjAwMC9zdmciIGZpbGw9Im5vbmUiIHZpZXdCb3g9IjAgMCA0OSA0OSIgaGVpZ2h0PSI0OSIgd2lkdGg9IjQ5Ij4mI3hhOzxjaXJjbGUgc3Ryb2tlLXdpZHRoPSIwLjg1NzE0MyIgc3Ryb2tlPSIjRDVEQUREIiBmaWxsPSJ1cmwoI3BhaW50MF9saW5lYXJfMjYyMl8yMDQ3NSkiIHI9IjIzLjU3MTQiIGN5PSIyNC4wMzQ5IiBjeD0iMjQuNSIvPiYjeGE7PHBhdGggZmlsbD0idXJsKCNwYWludDFfcmFkaWFsXzI2MjJfMjA0NzUpIiBkPSJNMjQuMzkzMSAxMi4yMzcxQzIwLjExMDcgMTIuMjM3MSAxNy4wNjgxIDE1LjcyMzEgMTYuNTYxMSAxOS4zNjI1QzE1LjE4MzYgMTkuNDQ0NCAxMy45NjcyIDE5Ljk2MjEgMTMuMDIyNSAyMC44MzE3QzExLjc0NDUgMjIuMDA4MSAxMS4wODQ0IDIzLjcxNTYgMTEuMDg0NCAyNS41MTYzQzExLjA4NDQgMjcuMTg5NyAxMS41OTIgMjguNzcxNSAxMi43MzE2IDI5Ljk0MDlDMTMuNTg2MSAzMC44MTc4IDE0LjcwNzcgMzEuMzcyNCAxNi4wMTcgMzEuNTk4NEMxNi4xMzc2IDMxLjM1MzUgMTYuMjczNSAzMS4xMTY4IDE2LjQyNTIgMzAuODg5MkwxNi40NDEgMzAuODY1NUwxNi40NTQ4IDMwLjg0NjFDMTYuNzA2OSAzMC40OTAxIDE2Ljk5NDggMzAuMTY2IDE3LjMxNjkgMjkuODc2MUMxNy4xODMxIDI5LjQzMTcgMTcuMTE4IDI4Ljk2NDUgMTcuMTE4IDI4LjQ4MzVDMTcuMTE4IDI3Ljg1NDkgMTcuMjM4NiAyNy4yNDEzIDE3LjQ4NDkgMjYuNjU5MkMxNy43MiAyNi4xMDMzIDE4LjA1MTMgMjUuNjAwMSAxOC40ODI0IDI1LjE2OTFDMTguOTE4IDI0LjczMzQgMTkuNDI1IDI0LjM5MTYgMTkuOTkyNiAyNC4xNTE1QzIwLjU3NDcgMjMuOTA1MiAyMS4xODgyIDIzLjc4NDYgMjEuODE2OCAyMy43ODQ2QzIyLjA3NTkgMjMuNzg0NiAyMi4zMzI0IDIzLjgwNTEgMjIuNTg1MyAyMy44NDY0QzIyLjkwNjUgMjMuNjE3OSAyMy4yNTIyIDIzLjQyNTEgMjMuNjIwNCAyMy4yNjkzQzI0LjI4NTEgMjIuOTg4MSAyNC45ODYzIDIyLjg0OTcgMjUuNzA4OSAyMi44NDk3QzI2LjQzMTYgMjIuODQ5NyAyNy4xMzI3IDIyLjk4ODEgMjcuNzk3NSAyMy4yNjkzQzI4LjQ0MzYgMjMuNTQyNyAyOS4wMTc2IDIzLjkzMjYgMjkuNTA0MyAyNC40MzY1QzMwLjAwODIgMjQuOTIzMiAzMC4zOTgxIDI1LjQ5NzIgMzAuNjcxNSAyNi4xNDMzQzMwLjk1MjcgMjYuODA4MSAzMS4wOTExIDI3LjUwOTMgMzEuMDkxMSAyOC4yMzE5QzMxLjA5MTEgMjguOTI1MiAzMC45NjM3IDI5LjU5ODggMzAuNzA1IDMwLjIzOTVDMzEuMTk2OSAzMC42Mjg4IDMxLjYzNDYgMzEuMDg3NyAzMi4wMTUyIDMxLjYxMjdDMzUuMjc5MiAzMS4wNDI2IDM3Ljk5OTkgMjguMzY4IDM3Ljk5OTkgMjQuMzU5MUMzNy45OTk5IDIwLjM3NTEgMzUuMTUyNiAxNy4zMTM1IDMxLjcyNDcgMTYuOTg5N0MzMC4zNTA3IDE0LjE0ODMgMjcuOCAxMi4yMzcxIDI0LjM5MzEgMTIuMjM3MVoiIGNsaXAtcnVsZT0iZXZlbm9kZCIgZmlsbC1ydWxlPSJldmVub2RkIi8+JiN4YTs8cGF0aCBmaWxsPSJ1cmwoI3BhaW50Ml9yYWRpYWxfMjYyMl8yMDQ3NSkiIGQ9Ik0yOC4zMzY4IDMwLjgwNzhDMjkuMzA4MiAzMS4xODk0IDMwLjA5NzQgMzEuODEzOCAzMC43MDQ1IDMyLjY4MTFDMzEuMzExNiAzMy41NDg0IDMxLjYxNTIgMzQuNTI4NSAzMS42MTUyIDM1LjYyMTNWMzcuMTA0NEMzMS42MTUyIDM3LjMxMjUgMzEuNTM3MSAzNy40ODYgMzEuMzgxIDM3LjYyNDdDMzEuMjQyMiAzNy43NjM1IDMxLjA3NzQgMzcuODMyOSAzMC44ODY2IDM3LjgzMjlIMjkuNDAzNkMyOS4xOTU0IDM3LjgzMjkgMjkuMDEzMyAzNy43NjM1IDI4Ljg1NzIgMzcuNjI0N0MyOC43MTg0IDM3LjQ4NiAyOC42NDkgMzcuMzEyNSAyOC42NDkgMzcuMTA0NEMyOC42NDkgMzYuODk2MiAyOC43MTg0IDM2LjcyMjcgMjguODU3MiAzNi41ODRDMjkuMDEzMyAzNi40Mjc5IDI5LjE5NTQgMzYuMzQ5OCAyOS40MDM2IDM2LjM0OThIMzAuMTMyMVYzNS42MjEzQzMwLjEzMjEgMzUuMTE4MiAzMC4wMzY3IDM0LjY0MTIgMjkuODQ1OSAzNC4xOTAyQzI5LjY1NTEgMzMuNzM5MiAyOS4zODYyIDMzLjM0OSAyOS4wMzkzIDMzLjAxOTRDMjguNzA5NyAzMi42NzI1IDI4LjMxOTUgMzIuNDAzNiAyNy44Njg1IDMyLjIxMjhDMjcuNDM0OCAzMi4wMjIgMjYuOTU3OCAzMS45MjY2IDI2LjQzNzUgMzEuOTI2NkgyNC45ODA0QzI0LjQ2IDMxLjkyNjYgMjMuOTc0NCAzMi4wMjIgMjMuNTIzNCAzMi4yMTI4QzIzLjA4OTcgMzIuNDAzNiAyMi42OTk0IDMyLjY3MjUgMjIuMzUyNSAzMy4wMTk0QzIyLjAyMyAzMy4zNDkgMjEuNzYyOCAzMy43MzkyIDIxLjU3MiAzNC4xOTAyQzIxLjM4MTIgMzQuNjQxMiAyMS4yODU4IDM1LjExODIgMjEuMjg1OCAzNS42MjEzVjM2LjM0OThIMjIuMDE0M0MyMi4yMjI0IDM2LjM0OTggMjIuMzk1OSAzNi40Mjc5IDIyLjUzNDcgMzYuNTg0QzIyLjY3MzQgMzYuNzIyNyAyMi43NDI4IDM2Ljg5NjIgMjIuNzQyOCAzNy4xMDQ0QzIyLjc0MjggMzcuMzEyNSAyMi42NzM0IDM3LjQ4NiAyMi41MzQ3IDM3LjYyNDdDMjIuMzk1OSAzNy43NjM1IDIyLjIyMjQgMzcuODMyOSAyMi4wMTQzIDM3LjgzMjlIMjAuNTMxMkMyMC4zNDA0IDM3LjgzMjkgMjAuMTY3IDM3Ljc2MzUgMjAuMDEwOSAzNy42MjQ3QzE5Ljg3MjEgMzcuNDg2IDE5LjgwMjcgMzcuMzEyNSAxOS44MDI3IDM3LjEwNDRMMTkuODAyNyAzNi4wNTAySDE3LjgyMzRDMTcuNjMyOCAzNi4wNTAyIDE3LjQ2MTYgMzUuOTc5NSAxNy4zMTQ2IDM1Ljg0ODhMMTcuMzA3NSAzNS44NDI1QzE3LjE2ODEgMzUuNzAzMSAxNy4wOTk4IDM1LjUyNzEgMTcuMDk5OCAzNS4zMjY1VjM0LjE4MjdDMTcuMDk5OCAzMy43MzkyIDE3LjE2MjEgMzMuMzIxIDE3LjI4ODEgMzIuOTI5MUwxNy4yODkyIDMyLjkyNTlDMTcuNDI3MiAzMi41MjU2IDE3LjYwNzEgMzIuMTU4NiAxNy44MjkzIDMxLjgyNTNMMTcuODMxOCAzMS44MjE1QzE4LjA2NzggMzEuNDg4MyAxOC4zNDU4IDMxLjE5NjQgMTguNjY1MiAzMC45NDYxQzE4LjkyNDIgMzAuNzMyNCAxOS4yMDU5IDMwLjU1NSAxOS41MTAxIDMwLjQxNEMxOS4wMzk4IDI5Ljg4ODUgMTguODA1NSAyOS4yNDE5IDE4LjgwNTUgMjguNDgzNUMxOC44MDU1IDI4LjA3NDUgMTguODgzMiAyNy42ODUxIDE5LjAzOSAyNy4zMTY3QzE5LjE5MzkgMjYuOTUwNyAxOS40MDYgMjYuNjMyIDE5LjY3NTYgMjYuMzYyM0MxOS45NTc5IDI2LjA4MDEgMjAuMjgzIDI1Ljg2MDkgMjAuNjUwMSAyNS43MDU2QzIxLjAxODQgMjUuNTQ5OCAyMS40MDc4IDI1LjQ3MjEgMjEuODE2OCAyNS40NzIxQzIyLjIyNTkgMjUuNDcyMSAyMi42MTUyIDI1LjU0OTggMjIuOTgzNiAyNS43MDU2TDIzLjAwMDggMjUuNzEzQzIzLjAyNzEgMjUuNjg0OSAyMy4wNTM4IDI1LjY1NzMgMjMuMDgxIDI1LjYzQzIzLjQyOCAyNS4yODMxIDIzLjgyNjkgMjUuMDE0MiAyNC4yNzc5IDI0LjgyMzRDMjQuNzI4OSAyNC42MzI2IDI1LjIwNTkgMjQuNTM3MiAyNS43MDg5IDI0LjUzNzJDMjYuMjEyIDI0LjUzNzIgMjYuNjg5IDI0LjYzMjYgMjcuMTQgMjQuODIzNEMyNy41OTA5IDI1LjAxNDIgMjcuOTgxMiAyNS4yODMxIDI4LjMxMDggMjUuNjNDMjguNjU3NyAyNS45NTk2IDI4LjkyNjYgMjYuMzQ5OSAyOS4xMTc0IDI2LjgwMDlDMjkuMzA4MiAyNy4yNTE5IDI5LjQwMzYgMjcuNzI4OSAyOS40MDM2IDI4LjIzMTlDMjkuNDAzNiAyOC43MzQ5IDI5LjMwODIgMjkuMjEyIDI5LjExNzQgMjkuNjYzQzI4LjkyNjYgMzAuMDk2NiAyOC42NjY0IDMwLjQ3ODIgMjguMzM2OCAzMC44MDc4Wk0yMC4wMzY5IDM0LjA2MDFDMTkuOTgyMiAzNC4yMzAxIDE5LjkzNzIgMzQuNDA0MyAxOS45MDE3IDM0LjU4MjdIMTguNTY3MlYzNC4xODI3QzE4LjU2NzIgMzMuODE1NyAxOC42MzY3IDMzLjQ2OTMgMTguNzc1MiAzMy4xNDJDMTguOTE0NiAzMi44MTI0IDE5LjEwMzkgMzIuNTI5IDE5LjM0MjYgMzIuMjkwM0MxOS41OTYyIDMyLjAzNjcgMTkuODgwMyAzMS44NDEyIDIwLjE5NTMgMzEuNzAyNEMyMC41MjE2IDMxLjU2NDUgMjAuODc0MyAzMS40OTQ5IDIxLjI1NDkgMzEuNDk0OUgyMS44NzA4QzIxLjgzMTUgMzEuNTI1NCAyMS43OTI2IDMxLjU1NjYgMjEuNzU0MSAzMS41ODg0QzIxLjM1NTEgMzEuOTAwNiAyMS4wMDgyIDMyLjI2NDggMjAuNzEzNCAzMi42ODExQzIwLjQzNTggMzMuMDk3NCAyMC4yMTAzIDMzLjU1NzEgMjAuMDM2OSAzNC4wNjAxWk0yNS43MDg5IDI2LjAyMDNDMjUuMTAxOCAyNi4wMjAzIDI0LjU4MTUgMjYuMjM3MSAyNC4xNDc4IDI2LjY3MDhDMjMuNzE0MiAyNy4xMDQ0IDIzLjQ5NzMgMjcuNjI0OCAyMy40OTczIDI4LjIzMTlDMjMuNDk3MyAyOC44MzkgMjMuNzE0MiAyOS4zNTk0IDI0LjE0NzggMjkuNzkzQzI0LjU4MTUgMzAuMjI2NyAyNS4xMDE4IDMwLjQ0MzUgMjUuNzA4OSAzMC40NDM1QzI2LjMxNiAzMC40NDM1IDI2LjgzNjQgMzAuMjI2NyAyNy4yNyAyOS43OTNDMjcuNzAzNyAyOS4zNTk0IDI3LjkyMDUgMjguODM5IDI3LjkyMDUgMjguMjMxOUMyNy45MjA1IDI3LjYyNDggMjcuNzAzNyAyNy4xMDQ0IDI3LjI3IDI2LjY3MDhDMjYuODM2NCAyNi4yMzcxIDI2LjMxNiAyNi4wMjAzIDI1LjcwODkgMjYuMDIwM1pNMjIuMDE0MyAyOC4yMzE5QzIyLjAxNDMgMjguODU5NiAyMi4xNDM2IDI5LjQyMTEgMjIuNDAyMyAyOS45MTYzQzIyLjIyMjMgMjkuOTkwNiAyMi4wMjc1IDMwLjAyNzQgMjEuODE2OCAzMC4wMjc0QzIxLjM5MiAzMC4wMjc0IDIxLjAzMTcgMjkuODc3NiAyMC43MjcyIDI5LjU3MzFDMjAuNDIyOCAyOS4yNjg3IDIwLjI3MjkgMjguOTA4MyAyMC4yNzI5IDI4LjQ4MzVDMjAuMjcyOSAyOC4wNTg3IDIwLjQyMjggMjcuNjk4MyAyMC43MjcyIDI3LjM5MzlDMjEuMDMxNyAyNy4wODk0IDIxLjM5MiAyNi45Mzk2IDIxLjgxNjggMjYuOTM5NkMyMS45NjA1IDI2LjkzOTYgMjIuMDk2OSAyNi45NTY3IDIyLjIyNjIgMjYuOTkxMkMyMi4wODQ5IDI3LjM4NTUgMjIuMDE0MyAyNy43OTkxIDIyLjAxNDMgMjguMjMxOVoiIGNsaXAtcnVsZT0iZXZlbm9kZCIgZmlsbC1ydWxlPSJldmVub2RkIi8+JiN4YTs8ZGVmcz4mI3hhOzxsaW5lYXJHcmFkaWVudCBncmFkaWVudFVuaXRzPSJ1c2VyU3BhY2VPblVzZSIgeTI9IjQ0LjI3OTIiIHgyPSI0MS41NjQ1IiB5MT0iNi44NDc3NSIgeDE9IjQuODUyODciIGlkPSJwYWludDBfbGluZWFyXzI2MjJfMjA0NzUiPiYjeGE7PHN0b3Agc3RvcC1jb2xvcj0id2hpdGUiLz4mI3hhOzxzdG9wIHN0b3AtY29sb3I9IiNFQUVDRUUiIG9mZnNldD0iMSIvPiYjeGE7PC9saW5lYXJHcmFkaWVudD4mI3hhOzxyYWRpYWxHcmFkaWVudCBncmFkaWVudFRyYW5zZm9ybT0idHJhbnNsYXRlKDE1LjI1ODMgMTUuOTk1NCkgcm90YXRlKDQzLjg3NzkpIHNjYWxlKDI1Ljg1MjQgNDguODExNykiIGdyYWRpZW50VW5pdHM9InVzZXJTcGFjZU9uVXNlIiByPSIxIiBjeT0iMCIgY3g9IjAiIGlkPSJwYWludDFfcmFkaWFsXzI2MjJfMjA0NzUiPiYjeGE7PHN0b3Agc3RvcC1jb2xvcj0iIzAxOTVGRiIvPiYjeGE7PHN0b3Agc3RvcC1jb2xvcj0iIzExNDdFOSIgb2Zmc2V0PSIxIi8+JiN4YTs8L3JhZGlhbEdyYWRpZW50PiYjeGE7PHJhZGlhbEdyYWRpZW50IGdyYWRpZW50VHJhbnNmb3JtPSJ0cmFuc2xhdGUoMTUuMjUyMiAxNi4wODc2KSByb3RhdGUoNDMuNTYwMikgc2NhbGUoMjUuODcyNyAyMy41NDcxKSIgZ3JhZGllbnRVbml0cz0idXNlclNwYWNlT25Vc2UiIHI9IjEiIGN5PSIwIiBjeD0iMCIgaWQ9InBhaW50Ml9yYWRpYWxfMjYyMl8yMDQ3NSI+JiN4YTs8c3RvcCBzdG9wLWNvbG9yPSIjMTM0OEZGIi8+JiN4YTs8c3RvcCBzdG9wLWNvbG9yPSIjMDYyMzhEIiBvZmZzZXQ9IjEiLz4mI3hhOzwvcmFkaWFsR3JhZGllbnQ+JiN4YTs8L2RlZnM+JiN4YTs8L3N2Zz4=;points=[[0,0,0,0,0],[0,0.25,0,0,0],[0,0.5,0,0,0],[0,0.75,0,0,0],[0.25,0,0,0,0],[0.5,0,0,0,0],[0.75,0,0,0,0],[1,0,0,0,0],[1,0.25,0,0,0],[1,0.5,0,0,0],[1,0.75,0,0,0]];" parent="1" vertex="1">
          <mxGeometry x="-220.66000000000008" y="741.5" width="16" height="16" as="geometry" />
        </mxCell>
        <mxCell id="Vf0blvrW2W4Uam2qfTRM-12" value="&lt;div style=&quot;font-size: 10px; line-height: 100%;&quot;&gt;&lt;span style=&quot;font-family: arial; font-size: 10px; background-color: initial;&quot;&gt;&lt;font style=&quot;font-size: 10px;&quot;&gt;BTP Service&lt;/font&gt;&lt;/span&gt;&lt;/div&gt;" style="text;html=1;align=left;verticalAlign=middle;resizable=0;points=[];autosize=1;strokeColor=none;fillColor=none;fontSize=10;fontColor=#1D2D3E;fontFamily=Helvetica;labelPosition=center;verticalLabelPosition=middle;" parent="1" vertex="1">
          <mxGeometry x="-196.66000000000008" y="739" width="80" height="20" as="geometry" />
        </mxCell>
        <mxCell id="Vf0blvrW2W4Uam2qfTRM-13" value="" style="endArrow=blockThin;html=1;strokeColor=#188918;bendable=1;rounded=0;endFill=1;endSize=4;strokeWidth=1.5;startSize=4;startArrow=blockThin;startFill=1;entryX=0.04;entryY=0.52;entryDx=0;entryDy=0;entryPerimeter=0;" parent="1" edge="1">
          <mxGeometry width="50" height="50" relative="1" as="geometry">
            <mxPoint x="-123" y="723.78" as="sourcePoint" />
            <mxPoint x="-101" y="723.78" as="targetPoint" />
            <Array as="points" />
          </mxGeometry>
        </mxCell>
        <mxCell id="Vf0blvrW2W4Uam2qfTRM-14" value="&lt;div style=&quot;font-size: 10px; line-height: 100%;&quot;&gt;&lt;span style=&quot;font-family: arial; font-size: 10px; background-color: initial;&quot;&gt;&lt;font style=&quot;font-size: 10px;&quot;&gt;Mutual Trust&lt;/font&gt;&lt;/span&gt;&lt;/div&gt;" style="text;html=1;align=left;verticalAlign=middle;resizable=0;points=[];autosize=1;strokeColor=none;fillColor=none;fontSize=10;fontColor=#1D2D3E;fontFamily=Helvetica;labelPosition=center;verticalLabelPosition=middle;" parent="1" vertex="1">
          <mxGeometry x="-92" y="711.5" width="73" height="23" as="geometry" />
        </mxCell>
        <mxCell id="Vf0blvrW2W4Uam2qfTRM-15" value="" style="endArrow=none;html=1;strokeColor=#188918;bendable=1;rounded=0;endFill=0;endSize=3;strokeWidth=1.5;dashed=1;" parent="1" edge="1">
          <mxGeometry width="50" height="50" relative="1" as="geometry">
            <mxPoint x="-100.75" y="748.47" as="sourcePoint" />
            <mxPoint x="-121.75" y="748.47" as="targetPoint" />
            <Array as="points" />
          </mxGeometry>
        </mxCell>
        <mxCell id="Vf0blvrW2W4Uam2qfTRM-16" value="&lt;div style=&quot;font-size: 10px; line-height: 100%;&quot;&gt;&lt;span style=&quot;font-family: arial; font-size: 10px; background-color: initial;&quot;&gt;&lt;font style=&quot;font-size: 10px;&quot;&gt;Optional&lt;/font&gt;&lt;/span&gt;&lt;/div&gt;" style="text;html=1;align=left;verticalAlign=middle;resizable=0;points=[];autosize=1;strokeColor=none;fillColor=none;fontSize=10;fontColor=#1D2D3E;fontFamily=Helvetica;labelPosition=center;verticalLabelPosition=middle;" parent="1" vertex="1">
          <mxGeometry x="-92" y="735.5" width="55" height="23" as="geometry" />
        </mxCell>
        <mxCell id="Vf0blvrW2W4Uam2qfTRM-17" value="" style="endArrow=none;html=1;strokeColor=#475E75;bendable=1;rounded=0;endFill=0;endSize=3;strokeWidth=1.5;dashed=1;" parent="1" edge="1">
          <mxGeometry width="50" height="50" relative="1" as="geometry">
            <mxPoint x="-100.75" y="773.97" as="sourcePoint" />
            <mxPoint x="-121.75" y="773.97" as="targetPoint" />
            <Array as="points" />
          </mxGeometry>
        </mxCell>
        <mxCell id="Vf0blvrW2W4Uam2qfTRM-18" value="&lt;div style=&quot;font-size: 10px; line-height: 100%;&quot;&gt;&lt;font face=&quot;arial&quot;&gt;Group&lt;/font&gt;&lt;/div&gt;" style="text;html=1;align=left;verticalAlign=middle;resizable=0;points=[];autosize=1;strokeColor=none;fillColor=none;fontSize=10;fontColor=#1D2D3E;fontFamily=Helvetica;labelPosition=center;verticalLabelPosition=middle;" parent="1" vertex="1">
          <mxGeometry x="-92" y="763" width="50" height="20" as="geometry" />
        </mxCell>
        <mxCell id="Vf0blvrW2W4Uam2qfTRM-20" value="&lt;font face=&quot;arial&quot; color=&quot;#475e75&quot;&gt;This BTP Solution Diagram&amp;nbsp;&lt;/font&gt;&lt;span style=&quot;color: rgb(71, 94, 117); font-family: arial;&quot;&gt;depicts the BTP services setup within a customer&#39;s subaccount for&lt;/span&gt;&lt;br style=&quot;color: rgb(71, 94, 117); font-family: arial;&quot;&gt;&lt;span style=&quot;color: rgb(71, 94, 117); font-family: arial;&quot;&gt;SAP Start as predefined entry point for accessing SAP cloud buisness solutions which is also&lt;/span&gt;&lt;div&gt;&lt;span style=&quot;color: rgb(71, 94, 117); font-family: arial;&quot;&gt;integrated&amp;nbsp;&lt;/span&gt;&lt;span style=&quot;background-color: initial; color: rgb(71, 94, 117); font-family: arial;&quot;&gt;with SAP Task Center and Joule&lt;/span&gt;&lt;font style=&quot;background-color: initial;&quot; face=&quot;arial&quot; color=&quot;#475e75&quot;&gt;.&lt;/font&gt;&lt;/div&gt;" style="text;html=1;align=left;verticalAlign=middle;resizable=0;points=[];autosize=1;strokeColor=none;fillColor=none;fontSize=12;fontColor=#1D2D3E;fontFamily=Helvetica;" parent="1" vertex="1">
          <mxGeometry x="-1155.84" y="736" width="520" height="60" as="geometry" />
        </mxCell>
        <mxCell id="Vf0blvrW2W4Uam2qfTRM-21" value="&lt;font face=&quot;arial&quot; color=&quot;#475e75&quot;&gt;&lt;b&gt;Diagram Level: 2&lt;/b&gt;&lt;/font&gt;" style="text;html=1;align=left;verticalAlign=middle;resizable=0;points=[];autosize=1;strokeColor=none;fillColor=none;fontSize=12;fontColor=#1D2D3E;fontFamily=Helvetica;" parent="1" vertex="1">
          <mxGeometry x="-1155.84" y="716.5" width="120" height="30" as="geometry" />
        </mxCell>
        <mxCell id="H2DL-4ByJS_I4h6Slb3R-2" value="SAP Fieldglass" style="text;html=1;align=left;verticalAlign=middle;resizable=0;points=[];autosize=1;strokeColor=none;fillColor=none;fontSize=10;fontColor=#1A2733;fontFamily=Helvetica;fontStyle=1" parent="1" vertex="1">
          <mxGeometry x="-183" y="461.11" width="90" height="30" as="geometry" />
        </mxCell>
        <mxCell id="H2DL-4ByJS_I4h6Slb3R-3" value="" style="shape=image;verticalLabelPosition=bottom;labelBackgroundColor=default;verticalAlign=top;aspect=fixed;imageAspect=0;image=data:image/svg+xml,PHN2ZyB4bWxucz0iaHR0cDovL3d3dy53My5vcmcvMjAwMC9zdmciIGZpbGw9Im5vbmUiIHZpZXdCb3g9IjAgMCAxNiAxNiIgaGVpZ2h0PSIxNiIgd2lkdGg9IjE2Ij4mI3hhOzxwYXRoIGZpbGw9IiMxRDJEM0UiIGQ9Ik0xMi41NTEyIDUuMjQyMzJDMTAuODU3MiA0Ljk1MzA0IDEwLjMxNTEgMy42MDQ3MiAxMC4xMzYgMi43NjE0MUMxMC4xMTY2IDIuNjc4MDYgMTAuMDEwMSAyLjY4Mjk3IDkuOTk1NjIgMi43NjYzMkM5LjcxMDA2IDQuNDgyMzYgOC4zNzkwMyA1LjAzMTQ5IDcuNTQ2NTMgNS4yMTI5QzcuNDY0MjUgNS4yMzI1MSA3LjQ2OTA5IDUuMzQwMzggNy41NTEzNyA1LjM1NTA5QzkuMjQ1NDEgNS42NDQzNiA5Ljc4NzUgNi45OTI2OCA5Ljk2NjU4IDcuODM1OTlDOS45ODU5NCA3LjkxOTM0IDEwLjA5MjQgNy45MTQ0NCAxMC4xMDY5IDcuODMxMDlDMTAuMzkyNSA2LjExNTA1IDExLjcyMzUgNS41NjU5MSAxMi41NTYgNS4zODQ1QzEyLjYzODMgNS4zNjQ4OSAxMi42MzM1IDUuMjU3MDMgMTIuNTUxMiA1LjI0MjMyWiIvPiYjeGE7PHBhdGggZmlsbD0iIzFEMkQzRSIgZD0iTTQuNDEwMjYgMEM0LjE2MzA3IDAgMy45MjkwNiAwLjExMjg4NCAzLjc3MzI1IDAuMzA3Mjc4TDAuMTgzNTExIDQuNzg2MThDLTAuMDUyMjA1NyA1LjA4MDI4IC0wLjA2MTc4MjUgNS40OTg2NCAwLjE2MDIyMyA1LjgwMzQ5TDcuMzM5NzEgMTUuNjYyMkM3LjQ5NDM4IDE1Ljg3NDYgNy43Mzk0NSAxNiA4IDE2QzguMjYwNTUgMTYgOC41MDU2MiAxNS44NzQ2IDguNjYwMjkgMTUuNjYyMkwxNS44Mzk4IDUuODAzNDlDMTYuMDYxOCA1LjQ5ODY0IDE2LjA1MjIgNS4wODAyOCAxNS44MTY1IDQuNzg2MThMMTIuMjI2NyAwLjMwNzI3OEMxMi4wNzA5IDAuMTEyODg0IDExLjgzNjkgMCAxMS41ODk3IDBINC40MTAyNlpNMS44NTc4NyA1LjMzNDQ0TDQuODAwOTggMS42NjIzNEgxMS4xOTlMMTQuMTQyMSA1LjMzNDQ0TDggMTMuNzY4N0wxLjg1Nzg3IDUuMzM0NDRaIiBjbGlwLXJ1bGU9ImV2ZW5vZGQiIGZpbGwtcnVsZT0iZXZlbm9kZCIvPiYjeGE7PC9zdmc+;" parent="1" vertex="1">
          <mxGeometry x="-10.5" y="445.89" width="16" height="16" as="geometry" />
        </mxCell>
        <mxCell id="H2DL-4ByJS_I4h6Slb3R-4" value="" style="shape=image;verticalLabelPosition=bottom;labelBackgroundColor=default;verticalAlign=top;aspect=fixed;imageAspect=0;image=data:image/svg+xml,PHN2ZyB4bWxucz0iaHR0cDovL3d3dy53My5vcmcvMjAwMC9zdmciIGZpbGw9Im5vbmUiIHZpZXdCb3g9IjAgMCAxNiAxNiIgaGVpZ2h0PSIxNiIgd2lkdGg9IjE2Ij4mI3hhOzxwYXRoIGZpbGw9IiMxRDJEM0UiIGQ9Ik0xMi41NTEyIDUuMjQyMzJDMTAuODU3MiA0Ljk1MzA0IDEwLjMxNTEgMy42MDQ3MiAxMC4xMzYgMi43NjE0MUMxMC4xMTY2IDIuNjc4MDYgMTAuMDEwMSAyLjY4Mjk3IDkuOTk1NjIgMi43NjYzMkM5LjcxMDA2IDQuNDgyMzYgOC4zNzkwMyA1LjAzMTQ5IDcuNTQ2NTMgNS4yMTI5QzcuNDY0MjUgNS4yMzI1MSA3LjQ2OTA5IDUuMzQwMzggNy41NTEzNyA1LjM1NTA5QzkuMjQ1NDEgNS42NDQzNiA5Ljc4NzUgNi45OTI2OCA5Ljk2NjU4IDcuODM1OTlDOS45ODU5NCA3LjkxOTM0IDEwLjA5MjQgNy45MTQ0NCAxMC4xMDY5IDcuODMxMDlDMTAuMzkyNSA2LjExNTA1IDExLjcyMzUgNS41NjU5MSAxMi41NTYgNS4zODQ1QzEyLjYzODMgNS4zNjQ4OSAxMi42MzM1IDUuMjU3MDMgMTIuNTUxMiA1LjI0MjMyWiIvPiYjeGE7PHBhdGggZmlsbD0iIzFEMkQzRSIgZD0iTTQuNDEwMjYgMEM0LjE2MzA3IDAgMy45MjkwNiAwLjExMjg4NCAzLjc3MzI1IDAuMzA3Mjc4TDAuMTgzNTExIDQuNzg2MThDLTAuMDUyMjA1NyA1LjA4MDI4IC0wLjA2MTc4MjUgNS40OTg2NCAwLjE2MDIyMyA1LjgwMzQ5TDcuMzM5NzEgMTUuNjYyMkM3LjQ5NDM4IDE1Ljg3NDYgNy43Mzk0NSAxNiA4IDE2QzguMjYwNTUgMTYgOC41MDU2MiAxNS44NzQ2IDguNjYwMjkgMTUuNjYyMkwxNS44Mzk4IDUuODAzNDlDMTYuMDYxOCA1LjQ5ODY0IDE2LjA1MjIgNS4wODAyOCAxNS44MTY1IDQuNzg2MThMMTIuMjI2NyAwLjMwNzI3OEMxMi4wNzA5IDAuMTEyODg0IDExLjgzNjkgMCAxMS41ODk3IDBINC40MTAyNlpNMS44NTc4NyA1LjMzNDQ0TDQuODAwOTggMS42NjIzNEgxMS4xOTlMMTQuMTQyMSA1LjMzNDQ0TDggMTMuNzY4N0wxLjg1Nzg3IDUuMzM0NDRaIiBjbGlwLXJ1bGU9ImV2ZW5vZGQiIGZpbGwtcnVsZT0iZXZlbm9kZCIvPiYjeGE7PC9zdmc+;" parent="1" vertex="1">
          <mxGeometry x="-10.5" y="468.11" width="16" height="16" as="geometry" />
        </mxCell>
        <mxCell id="ipeiBuzSmVnupcLZWemS-1" value="" style="shape=image;verticalLabelPosition=bottom;labelBackgroundColor=default;verticalAlign=top;aspect=fixed;imageAspect=0;image=data:image/svg+xml,PHN2ZyB4bWxucz0iaHR0cDovL3d3dy53My5vcmcvMjAwMC9zdmciIGZpbGw9Im5vbmUiIHZpZXdCb3g9IjAgMCAxNiAxNiIgaGVpZ2h0PSIxNiIgd2lkdGg9IjE2Ij4mI3hhOzxwYXRoIGZpbGw9IiMxRDJEM0UiIGQ9Ik0xMi41NTEyIDUuMjQyMzJDMTAuODU3MiA0Ljk1MzA0IDEwLjMxNTEgMy42MDQ3MiAxMC4xMzYgMi43NjE0MUMxMC4xMTY2IDIuNjc4MDYgMTAuMDEwMSAyLjY4Mjk3IDkuOTk1NjIgMi43NjYzMkM5LjcxMDA2IDQuNDgyMzYgOC4zNzkwMyA1LjAzMTQ5IDcuNTQ2NTMgNS4yMTI5QzcuNDY0MjUgNS4yMzI1MSA3LjQ2OTA5IDUuMzQwMzggNy41NTEzNyA1LjM1NTA5QzkuMjQ1NDEgNS42NDQzNiA5Ljc4NzUgNi45OTI2OCA5Ljk2NjU4IDcuODM1OTlDOS45ODU5NCA3LjkxOTM0IDEwLjA5MjQgNy45MTQ0NCAxMC4xMDY5IDcuODMxMDlDMTAuMzkyNSA2LjExNTA1IDExLjcyMzUgNS41NjU5MSAxMi41NTYgNS4zODQ1QzEyLjYzODMgNS4zNjQ4OSAxMi42MzM1IDUuMjU3MDMgMTIuNTUxMiA1LjI0MjMyWiIvPiYjeGE7PHBhdGggZmlsbD0iIzFEMkQzRSIgZD0iTTQuNDEwMjYgMEM0LjE2MzA3IDAgMy45MjkwNiAwLjExMjg4NCAzLjc3MzI1IDAuMzA3Mjc4TDAuMTgzNTExIDQuNzg2MThDLTAuMDUyMjA1NyA1LjA4MDI4IC0wLjA2MTc4MjUgNS40OTg2NCAwLjE2MDIyMyA1LjgwMzQ5TDcuMzM5NzEgMTUuNjYyMkM3LjQ5NDM4IDE1Ljg3NDYgNy43Mzk0NSAxNiA4IDE2QzguMjYwNTUgMTYgOC41MDU2MiAxNS44NzQ2IDguNjYwMjkgMTUuNjYyMkwxNS44Mzk4IDUuODAzNDlDMTYuMDYxOCA1LjQ5ODY0IDE2LjA1MjIgNS4wODAyOCAxNS44MTY1IDQuNzg2MThMMTIuMjI2NyAwLjMwNzI3OEMxMi4wNzA5IDAuMTEyODg0IDExLjgzNjkgMCAxMS41ODk3IDBINC40MTAyNlpNMS44NTc4NyA1LjMzNDQ0TDQuODAwOTggMS42NjIzNEgxMS4xOTlMMTQuMTQyMSA1LjMzNDQ0TDggMTMuNzY4N0wxLjg1Nzg3IDUuMzM0NDRaIiBjbGlwLXJ1bGU9ImV2ZW5vZGQiIGZpbGwtcnVsZT0iZXZlbm9kZCIvPiYjeGE7PC9zdmc+;" vertex="1" parent="1">
          <mxGeometry x="-220.66" y="765.5" width="16" height="16" as="geometry" />
        </mxCell>
        <mxCell id="ipeiBuzSmVnupcLZWemS-2" value="&lt;div style=&quot;font-size: 10px; line-height: 100%;&quot;&gt;&lt;span style=&quot;font-family: arial; font-size: 10px; background-color: initial;&quot;&gt;&lt;font style=&quot;font-size: 10px;&quot;&gt;Joule integrated&lt;/font&gt;&lt;/span&gt;&lt;/div&gt;" style="text;html=1;align=left;verticalAlign=middle;resizable=0;points=[];autosize=1;strokeColor=none;fillColor=none;fontSize=10;fontColor=#1D2D3E;fontFamily=Helvetica;labelPosition=center;verticalLabelPosition=middle;" vertex="1" parent="1">
          <mxGeometry x="-196.66000000000008" y="762.5" width="90" height="20" as="geometry" />
        </mxCell>
        <mxCell id="ipeiBuzSmVnupcLZWemS-3" value="&lt;span style=&quot;font-family: Helvetica; font-style: normal; font-variant-ligatures: normal; font-variant-caps: normal; font-weight: 700; letter-spacing: normal; orphans: 2; text-indent: 0px; text-transform: none; widows: 2; word-spacing: 0px; -webkit-text-stroke-width: 0px; text-decoration-thickness: initial; text-decoration-style: initial; text-decoration-color: initial; float: none; font-size: 10px; display: inline !important;&quot;&gt;&lt;font style=&quot;font-size: 10px;&quot;&gt;SAP S/4HANA Public Cloud&lt;/font&gt;&lt;/span&gt;" style="text;whiteSpace=wrap;html=1;align=left;container=0;verticalAlign=middle;fontColor=#1D2D3E;fontSize=10;" vertex="1" parent="1">
          <mxGeometry x="-183" y="398.59" width="143" height="24.57" as="geometry" />
        </mxCell>
        <mxCell id="ipeiBuzSmVnupcLZWemS-4" value="Alert &#xa;Notification" style="shape=image;verticalLabelPosition=bottom;labelBackgroundColor=default;verticalAlign=top;aspect=fixed;imageAspect=0;image=data:image/svg+xml,PHN2ZyB4bWxucz0iaHR0cDovL3d3dy53My5vcmcvMjAwMC9zdmciIGZpbGw9Im5vbmUiIHZpZXdCb3g9IjAgMCA0OSA0OCIgaGVpZ2h0PSI0OCIgd2lkdGg9IjQ5Ij4mI3hhOzxjaXJjbGUgc3Ryb2tlLXdpZHRoPSIwLjg1NzE0MyIgc3Ryb2tlPSIjRDVEQUREIiBmaWxsPSJ1cmwoI3BhaW50MF9saW5lYXJfMzIwMl8xNzI3MykiIHI9IjIzLjU3MTQiIGN5PSIyNCIgY3g9IjI0LjUiLz4mI3hhOzxnIGNsaXAtcGF0aD0idXJsKCNjbGlwMF8zMjAyXzE3MjczKSI+JiN4YTs8cGF0aCBmaWxsPSJ1cmwoI3BhaW50MV9saW5lYXJfMzIwMl8xNzI3MykiIGQ9Ik0yMS43NzQzIDE2LjAxMDNDMTcuOTE3NCAxNi44NDE4IDE1Ljc0NSAyMC4xNjY5IDE1Ljc0NSAyNS40MTMzVjI2LjM0NDZDMTUuNzQ1IDI5LjQ0ODkgMTMuNzkzOCAzMS41MzMyIDEzLjc3OSAzMS41NDhDMTMuNDUzOCAzMS44ODc5IDEzLjM2NTEgMzIuMzkwNSAxMy41NDI1IDMyLjgzNEMxMy43MzQ2IDMzLjI2MjcgMTQuMTYzMyAzMy41NDM2IDE0LjYzNjMgMzMuNTQzNkgyMC4xNzk3QzIwLjUxOTcgMzUuMjI4NyAyMi4wMTI3IDM2LjUgMjMuODAxNCAzNi41TDIzLjc4NjYgMzYuNDg1MkMyNS41NzUyIDM2LjQ4NTIgMjcuMDY4MiAzNS4yMTQgMjcuNDA4MiAzMy41Mjg4SDMyLjk1MTZDMzMuNDI0NiAzMy41Mjg4IDMzLjg1MzMgMzMuMjQ3OSAzNC4wNDU1IDMyLjgxOTJDMzQuMjM3NiAzMi4zOTA1IDM0LjE0ODkgMzEuODg3OSAzMy44MjM3IDMxLjU0OEMzMy43Nzk0IDMxLjUwMzYgMzEuODU3NyAyOS4zODk3IDMxLjg1NzcgMjYuMzQ0NlYyNS40MTMzQzMxLjg1NzcgMjQuNjY5OSAzMS44MTQxIDIzLjk2NTEgMzEuNzI4MiAyMy4zMDA1SDI4LjYyNzJMMjYuNDUwMSAyNS41MDA3TDI2LjM4NyAyNS41NTQ4QzI2LjA0NDUgMjUuODQ4NCAyNS41ODIxIDI2LjEyMjEgMjUuMDAyIDI2LjIyMjFDMjQuNDczMyAyNi4zMTMzIDIzLjk3MzggMjYuMjM4MSAyMy41Mzk3IDI2LjA2NzFDMjIuOTY1NSAyNS44NzMxIDIyLjQ0OTQgMjUuNDczNiAyMi4xMzY4IDI0Ljg3NTRDMjEuODgxNCAyNC40MzIyIDIxLjc3NDMgMjMuOTU0MiAyMS43NzQzIDIzLjQ5NzhWMTYuMDEwM1oiLz4mI3hhOzxwYXRoIGZpbGw9InVybCgjcGFpbnQyX2xpbmVhcl8zMjAyXzE3MjczKSIgZD0iTTI2LjAyMTYgOS41QzI1LjM4NjcgOS41IDI0Ljg1NzYgOS43MTE2NSAyNC40MzQzIDEwLjEzNDlDMjQuMDExIDEwLjU1ODIgMjMuNzk5MyAxMS4wNzc4IDIzLjc5OTMgMTEuNjkzNVYyMy40OTc3QzIzLjc5OTMgMjMuNjUxNyAyMy44Mzc4IDIzLjc4NjQgMjMuOTE0OCAyMy45MDE4QzIzLjk3MjUgMjQuMDM2NSAyNC4wNzgzIDI0LjEyMzEgMjQuMjMyMiAyNC4xNjE2QzI0LjUyMDggMjQuMjk2MiAyNC43OTk4IDI0LjI0ODEgMjUuMDY5MiAyNC4wMTczTDI3Ljc4MjIgMjEuMjc1NEgzNi4zMjUxQzM2Ljk2MDEgMjEuMjc1NCAzNy40ODkyIDIxLjA2MzggMzcuOTEyNSAyMC42NDA1QzM4LjMzNTggMjAuMjE3MiAzOC41NDc1IDE5LjY5NzcgMzguNTQ3NSAxOS4wODJWMTEuNjkzNUMzOC41NDc1IDExLjA3NzggMzguMzM1OCAxMC41NTgyIDM3LjkxMjUgMTAuMTM0OUMzNy40ODkyIDkuNzExNjUgMzYuOTYwMSA5LjUgMzYuMzI1MSA5LjVIMjYuMDIxNlpNMzAuNDAwNSAxNS41MDYxQzMwLjE5ODggMTUuMzAyIDMwLjA5OCAxNS4wNTcxIDMwLjA5OCAxNC43NzEzVjEyLjI5NTdDMzAuMDk4IDEyLjAzMDQgMzAuMTk4OCAxMS44MDU5IDMwLjQwMDUgMTEuNjIyMkMzMC42MDIxIDExLjQxODEgMzAuODU5NyAxMS4zMTYgMzEuMTczNCAxMS4zMTZDMzEuNDg3IDExLjMxNiAzMS43NDQ2IDExLjQxODEgMzEuOTQ2MyAxMS42MjIyQzMyLjE0NzkgMTEuODA1OSAzMi4yNDg3IDEyLjAzMDQgMzIuMjQ4NyAxMi4yOTU3VjE0Ljc3MTNDMzIuMjQ4NyAxNS4wNTcxIDMyLjE0NzkgMTUuMzAyIDMxLjk0NjMgMTUuNTA2MUMzMS43NDQ2IDE1LjY4OTcgMzEuNDg3IDE1Ljc4MTYgMzEuMTczNCAxNS43ODE2QzMwLjg1OTcgMTUuNzgxNiAzMC42MDIxIDE1LjY4OTcgMzAuNDAwNSAxNS41MDYxWk0zMi4wODA2IDE5LjIzNDhDMzEuODM0MiAxOS40ODEyIDMxLjUzMTggMTkuNjA0NSAzMS4xNzMzIDE5LjYwNDVDMzAuODE0OSAxOS42MDQ1IDMwLjUxMjQgMTkuNDgxMiAzMC4yNjYgMTkuMjM0OEMzMC4wMTk2IDE4Ljk4ODQgMjkuODk2MyAxOC42NzQ3IDI5Ljg5NjMgMTguMjkzOUMyOS44OTYzIDE3LjkzNTQgMzAuMDE5NiAxNy42MzMgMzAuMjY2IDE3LjM4NjZDMzAuNTEyNCAxNy4xNDAxIDMwLjgxNDkgMTcuMDE2OSAzMS4xNzMzIDE3LjAxNjlDMzEuNTMxOCAxNy4wMTY5IDMxLjgzNDIgMTcuMTQwMSAzMi4wODA2IDE3LjM4NjZDMzIuMzI3MSAxNy42MzMgMzIuNDUwMyAxNy45MzU0IDMyLjQ1MDMgMTguMjkzOUMzMi40NTAzIDE4LjY3NDcgMzIuMzI3MSAxOC45ODg0IDMyLjA4MDYgMTkuMjM0OFoiIGNsaXAtcnVsZT0iZXZlbm9kZCIgZmlsbC1ydWxlPSJldmVub2RkIi8+JiN4YTs8L2c+JiN4YTs8ZGVmcz4mI3hhOzxsaW5lYXJHcmFkaWVudCBncmFkaWVudFVuaXRzPSJ1c2VyU3BhY2VPblVzZSIgeTI9IjQ0LjI0NDMiIHgyPSI0MS41NjQ1IiB5MT0iNi44MTI4NCIgeDE9IjQuODUyODciIGlkPSJwYWludDBfbGluZWFyXzMyMDJfMTcyNzMiPiYjeGE7PHN0b3Agc3RvcC1jb2xvcj0id2hpdGUiLz4mI3hhOzxzdG9wIHN0b3AtY29sb3I9IiNFQUVDRUUiIG9mZnNldD0iMSIvPiYjeGE7PC9saW5lYXJHcmFkaWVudD4mI3hhOzxsaW5lYXJHcmFkaWVudCBncmFkaWVudFVuaXRzPSJ1c2VyU3BhY2VPblVzZSIgeTI9IjMzLjU2OCIgeDI9IjMwLjkwMDciIHkxPSIxOS4wNzQ0IiB4MT0iMTYuNTU0NyIgaWQ9InBhaW50MV9saW5lYXJfMzIwMl8xNzI3MyI+JiN4YTs8c3RvcCBzdG9wLWNvbG9yPSIjMDE5NUZGIi8+JiN4YTs8c3RvcCBzdG9wLWNvbG9yPSIjMTE0N0U5IiBvZmZzZXQ9IjAuOTkxMDI4Ii8+JiN4YTs8L2xpbmVhckdyYWRpZW50PiYjeGE7PGxpbmVhckdyYWRpZW50IGdyYWRpZW50VW5pdHM9InVzZXJTcGFjZU9uVXNlIiB5Mj0iMjIuMDMzOCIgeDI9IjM2LjI5MjYiIHkxPSIxMS42NjgiIHgxPSIyNS45Nzk3IiBpZD0icGFpbnQyX2xpbmVhcl8zMjAyXzE3MjczIj4mI3hhOzxzdG9wIHN0b3AtY29sb3I9IiMxMzQ4RkYiLz4mI3hhOzxzdG9wIHN0b3AtY29sb3I9IiMwNjIzOEQiIG9mZnNldD0iMSIvPiYjeGE7PC9saW5lYXJHcmFkaWVudD4mI3hhOzxjbGlwUGF0aCBpZD0iY2xpcDBfMzIwMl8xNzI3MyI+JiN4YTs8cmVjdCB0cmFuc2Zvcm09Im1hdHJpeCgtMSAwIDAgMSAzOS41IDkuNSkiIGZpbGw9IndoaXRlIiBoZWlnaHQ9IjI3IiB3aWR0aD0iMjciLz4mI3hhOzwvY2xpcFBhdGg+JiN4YTs8L2RlZnM+JiN4YTs8L3N2Zz4=;fontColor=#1D2D3E;" vertex="1" parent="1">
          <mxGeometry x="-939.3550000000001" y="269.372523659306" width="32" height="31.35" as="geometry" />
        </mxCell>
        <mxCell id="ipeiBuzSmVnupcLZWemS-5" value="&lt;span style=&quot;font-family: Helvetica; font-style: normal; font-variant-ligatures: normal; font-variant-caps: normal; font-weight: 700; letter-spacing: normal; orphans: 2; text-indent: 0px; text-transform: none; widows: 2; word-spacing: 0px; -webkit-text-stroke-width: 0px; text-decoration-thickness: initial; text-decoration-style: initial; text-decoration-color: initial; float: none; font-size: 10px; display: inline !important;&quot;&gt;&lt;font style=&quot;font-size: 10px;&quot;&gt;SAP S/4HANA Private Cloud&lt;/font&gt;&lt;/span&gt;" style="text;whiteSpace=wrap;html=1;align=left;container=0;verticalAlign=middle;fontColor=#1D2D3E;fontSize=10;" vertex="1" parent="1">
          <mxGeometry x="-183" y="373.82" width="143" height="24.57" as="geometry" />
        </mxCell>
        <mxCell id="ipeiBuzSmVnupcLZWemS-6" value="&lt;span style=&quot;font-family: Helvetica; font-style: normal; font-variant-ligatures: normal; font-variant-caps: normal; font-weight: 700; letter-spacing: normal; orphans: 2; text-indent: 0px; text-transform: none; widows: 2; word-spacing: 0px; -webkit-text-stroke-width: 0px; text-decoration-thickness: initial; text-decoration-style: initial; text-decoration-color: initial; float: none; font-size: 10px; display: inline !important;&quot;&gt;&lt;font style=&quot;font-size: 10px;&quot;&gt;SAP Ariba&lt;/font&gt;&lt;/span&gt;" style="text;whiteSpace=wrap;html=1;align=left;container=0;verticalAlign=middle;fontColor=#1D2D3E;fontSize=10;" vertex="1" parent="1">
          <mxGeometry x="-183" y="351.6745164744882" width="102.09375000000001" height="24.57146471685887" as="geometry" />
        </mxCell>
        <mxCell id="ipeiBuzSmVnupcLZWemS-7" value="" style="shape=image;verticalLabelPosition=bottom;labelBackgroundColor=default;verticalAlign=top;aspect=fixed;imageAspect=0;image=data:image/svg+xml,PHN2ZyB4bWxucz0iaHR0cDovL3d3dy53My5vcmcvMjAwMC9zdmciIGZpbGw9Im5vbmUiIHZpZXdCb3g9IjAgMCAxNiAxNiIgaGVpZ2h0PSIxNiIgd2lkdGg9IjE2Ij4mI3hhOzxwYXRoIGZpbGw9IiMxRDJEM0UiIGQ9Ik0xMi41NTEyIDUuMjQyMzJDMTAuODU3MiA0Ljk1MzA0IDEwLjMxNTEgMy42MDQ3MiAxMC4xMzYgMi43NjE0MUMxMC4xMTY2IDIuNjc4MDYgMTAuMDEwMSAyLjY4Mjk3IDkuOTk1NjIgMi43NjYzMkM5LjcxMDA2IDQuNDgyMzYgOC4zNzkwMyA1LjAzMTQ5IDcuNTQ2NTMgNS4yMTI5QzcuNDY0MjUgNS4yMzI1MSA3LjQ2OTA5IDUuMzQwMzggNy41NTEzNyA1LjM1NTA5QzkuMjQ1NDEgNS42NDQzNiA5Ljc4NzUgNi45OTI2OCA5Ljk2NjU4IDcuODM1OTlDOS45ODU5NCA3LjkxOTM0IDEwLjA5MjQgNy45MTQ0NCAxMC4xMDY5IDcuODMxMDlDMTAuMzkyNSA2LjExNTA1IDExLjcyMzUgNS41NjU5MSAxMi41NTYgNS4zODQ1QzEyLjYzODMgNS4zNjQ4OSAxMi42MzM1IDUuMjU3MDMgMTIuNTUxMiA1LjI0MjMyWiIvPiYjeGE7PHBhdGggZmlsbD0iIzFEMkQzRSIgZD0iTTQuNDEwMjYgMEM0LjE2MzA3IDAgMy45MjkwNiAwLjExMjg4NCAzLjc3MzI1IDAuMzA3Mjc4TDAuMTgzNTExIDQuNzg2MThDLTAuMDUyMjA1NyA1LjA4MDI4IC0wLjA2MTc4MjUgNS40OTg2NCAwLjE2MDIyMyA1LjgwMzQ5TDcuMzM5NzEgMTUuNjYyMkM3LjQ5NDM4IDE1Ljg3NDYgNy43Mzk0NSAxNiA4IDE2QzguMjYwNTUgMTYgOC41MDU2MiAxNS44NzQ2IDguNjYwMjkgMTUuNjYyMkwxNS44Mzk4IDUuODAzNDlDMTYuMDYxOCA1LjQ5ODY0IDE2LjA1MjIgNS4wODAyOCAxNS44MTY1IDQuNzg2MThMMTIuMjI2NyAwLjMwNzI3OEMxMi4wNzA5IDAuMTEyODg0IDExLjgzNjkgMCAxMS41ODk3IDBINC40MTAyNlpNMS44NTc4NyA1LjMzNDQ0TDQuODAwOTggMS42NjIzNEgxMS4xOTlMMTQuMTQyMSA1LjMzNDQ0TDggMTMuNzY4N0wxLjg1Nzg3IDUuMzM0NDRaIiBjbGlwLXJ1bGU9ImV2ZW5vZGQiIGZpbGwtcnVsZT0iZXZlbm9kZCIvPiYjeGE7PC9zdmc+;" vertex="1" parent="1">
          <mxGeometry x="-10.5" y="425.89" width="16" height="16" as="geometry" />
        </mxCell>
        <mxCell id="ipeiBuzSmVnupcLZWemS-8" value="" style="shape=image;verticalLabelPosition=bottom;labelBackgroundColor=default;verticalAlign=top;aspect=fixed;imageAspect=0;image=data:image/svg+xml,PHN2ZyB4bWxucz0iaHR0cDovL3d3dy53My5vcmcvMjAwMC9zdmciIGZpbGw9Im5vbmUiIHZpZXdCb3g9IjAgMCAxNiAxNiIgaGVpZ2h0PSIxNiIgd2lkdGg9IjE2Ij4mI3hhOzxwYXRoIGZpbGw9IiMxRDJEM0UiIGQ9Ik0xMi41NTEyIDUuMjQyMzJDMTAuODU3MiA0Ljk1MzA0IDEwLjMxNTEgMy42MDQ3MiAxMC4xMzYgMi43NjE0MUMxMC4xMTY2IDIuNjc4MDYgMTAuMDEwMSAyLjY4Mjk3IDkuOTk1NjIgMi43NjYzMkM5LjcxMDA2IDQuNDgyMzYgOC4zNzkwMyA1LjAzMTQ5IDcuNTQ2NTMgNS4yMTI5QzcuNDY0MjUgNS4yMzI1MSA3LjQ2OTA5IDUuMzQwMzggNy41NTEzNyA1LjM1NTA5QzkuMjQ1NDEgNS42NDQzNiA5Ljc4NzUgNi45OTI2OCA5Ljk2NjU4IDcuODM1OTlDOS45ODU5NCA3LjkxOTM0IDEwLjA5MjQgNy45MTQ0NCAxMC4xMDY5IDcuODMxMDlDMTAuMzkyNSA2LjExNTA1IDExLjcyMzUgNS41NjU5MSAxMi41NTYgNS4zODQ1QzEyLjYzODMgNS4zNjQ4OSAxMi42MzM1IDUuMjU3MDMgMTIuNTUxMiA1LjI0MjMyWiIvPiYjeGE7PHBhdGggZmlsbD0iIzFEMkQzRSIgZD0iTTQuNDEwMjYgMEM0LjE2MzA3IDAgMy45MjkwNiAwLjExMjg4NCAzLjc3MzI1IDAuMzA3Mjc4TDAuMTgzNTExIDQuNzg2MThDLTAuMDUyMjA1NyA1LjA4MDI4IC0wLjA2MTc4MjUgNS40OTg2NCAwLjE2MDIyMyA1LjgwMzQ5TDcuMzM5NzEgMTUuNjYyMkM3LjQ5NDM4IDE1Ljg3NDYgNy43Mzk0NSAxNiA4IDE2QzguMjYwNTUgMTYgOC41MDU2MiAxNS44NzQ2IDguNjYwMjkgMTUuNjYyMkwxNS44Mzk4IDUuODAzNDlDMTYuMDYxOCA1LjQ5ODY0IDE2LjA1MjIgNS4wODAyOCAxNS44MTY1IDQuNzg2MThMMTIuMjI2NyAwLjMwNzI3OEMxMi4wNzA5IDAuMTEyODg0IDExLjgzNjkgMCAxMS41ODk3IDBINC40MTAyNlpNMS44NTc4NyA1LjMzNDQ0TDQuODAwOTggMS42NjIzNEgxMS4xOTlMMTQuMTQyMSA1LjMzNDQ0TDggMTMuNzY4N0wxLjg1Nzg3IDUuMzM0NDRaIiBjbGlwLXJ1bGU9ImV2ZW5vZGQiIGZpbGwtcnVsZT0iZXZlbm9kZCIvPiYjeGE7PC9zdmc+;" vertex="1" parent="1">
          <mxGeometry x="-10.5" y="381.89" width="16" height="16" as="geometry" />
        </mxCell>
        <mxCell id="ipeiBuzSmVnupcLZWemS-9" value="" style="shape=image;verticalLabelPosition=bottom;labelBackgroundColor=default;verticalAlign=top;aspect=fixed;imageAspect=0;image=data:image/svg+xml,PHN2ZyB4bWxucz0iaHR0cDovL3d3dy53My5vcmcvMjAwMC9zdmciIGZpbGw9Im5vbmUiIHZpZXdCb3g9IjAgMCAxNiAxNiIgaGVpZ2h0PSIxNiIgd2lkdGg9IjE2Ij4mI3hhOzxwYXRoIGZpbGw9IiMxRDJEM0UiIGQ9Ik0xMi41NTEyIDUuMjQyMzJDMTAuODU3MiA0Ljk1MzA0IDEwLjMxNTEgMy42MDQ3MiAxMC4xMzYgMi43NjE0MUMxMC4xMTY2IDIuNjc4MDYgMTAuMDEwMSAyLjY4Mjk3IDkuOTk1NjIgMi43NjYzMkM5LjcxMDA2IDQuNDgyMzYgOC4zNzkwMyA1LjAzMTQ5IDcuNTQ2NTMgNS4yMTI5QzcuNDY0MjUgNS4yMzI1MSA3LjQ2OTA5IDUuMzQwMzggNy41NTEzNyA1LjM1NTA5QzkuMjQ1NDEgNS42NDQzNiA5Ljc4NzUgNi45OTI2OCA5Ljk2NjU4IDcuODM1OTlDOS45ODU5NCA3LjkxOTM0IDEwLjA5MjQgNy45MTQ0NCAxMC4xMDY5IDcuODMxMDlDMTAuMzkyNSA2LjExNTA1IDExLjcyMzUgNS41NjU5MSAxMi41NTYgNS4zODQ1QzEyLjYzODMgNS4zNjQ4OSAxMi42MzM1IDUuMjU3MDMgMTIuNTUxMiA1LjI0MjMyWiIvPiYjeGE7PHBhdGggZmlsbD0iIzFEMkQzRSIgZD0iTTQuNDEwMjYgMEM0LjE2MzA3IDAgMy45MjkwNiAwLjExMjg4NCAzLjc3MzI1IDAuMzA3Mjc4TDAuMTgzNTExIDQuNzg2MThDLTAuMDUyMjA1NyA1LjA4MDI4IC0wLjA2MTc4MjUgNS40OTg2NCAwLjE2MDIyMyA1LjgwMzQ5TDcuMzM5NzEgMTUuNjYyMkM3LjQ5NDM4IDE1Ljg3NDYgNy43Mzk0NSAxNiA4IDE2QzguMjYwNTUgMTYgOC41MDU2MiAxNS44NzQ2IDguNjYwMjkgMTUuNjYyMkwxNS44Mzk4IDUuODAzNDlDMTYuMDYxOCA1LjQ5ODY0IDE2LjA1MjIgNS4wODAyOCAxNS44MTY1IDQuNzg2MThMMTIuMjI2NyAwLjMwNzI3OEMxMi4wNzA5IDAuMTEyODg0IDExLjgzNjkgMCAxMS41ODk3IDBINC40MTAyNlpNMS44NTc4NyA1LjMzNDQ0TDQuODAwOTggMS42NjIzNEgxMS4xOTlMMTQuMTQyMSA1LjMzNDQ0TDggMTMuNzY4N0wxLjg1Nzg3IDUuMzM0NDRaIiBjbGlwLXJ1bGU9ImV2ZW5vZGQiIGZpbGwtcnVsZT0iZXZlbm9kZCIvPiYjeGE7PC9zdmc+;" vertex="1" parent="1">
          <mxGeometry x="-10.5" y="404.11" width="16" height="16" as="geometry" />
        </mxCell>
        <mxCell id="ipeiBuzSmVnupcLZWemS-10" value="" style="shape=image;verticalLabelPosition=bottom;labelBackgroundColor=default;verticalAlign=top;aspect=fixed;imageAspect=0;image=data:image/svg+xml,PHN2ZyB4bWxucz0iaHR0cDovL3d3dy53My5vcmcvMjAwMC9zdmciIGZpbGw9Im5vbmUiIHZpZXdCb3g9IjAgMCAxNiAxNiIgaGVpZ2h0PSIxNiIgd2lkdGg9IjE2Ij4mI3hhOzxwYXRoIGZpbGw9IiMxRDJEM0UiIGQ9Ik0xMi41NTEyIDUuMjQyMzJDMTAuODU3MiA0Ljk1MzA0IDEwLjMxNTEgMy42MDQ3MiAxMC4xMzYgMi43NjE0MUMxMC4xMTY2IDIuNjc4MDYgMTAuMDEwMSAyLjY4Mjk3IDkuOTk1NjIgMi43NjYzMkM5LjcxMDA2IDQuNDgyMzYgOC4zNzkwMyA1LjAzMTQ5IDcuNTQ2NTMgNS4yMTI5QzcuNDY0MjUgNS4yMzI1MSA3LjQ2OTA5IDUuMzQwMzggNy41NTEzNyA1LjM1NTA5QzkuMjQ1NDEgNS42NDQzNiA5Ljc4NzUgNi45OTI2OCA5Ljk2NjU4IDcuODM1OTlDOS45ODU5NCA3LjkxOTM0IDEwLjA5MjQgNy45MTQ0NCAxMC4xMDY5IDcuODMxMDlDMTAuMzkyNSA2LjExNTA1IDExLjcyMzUgNS41NjU5MSAxMi41NTYgNS4zODQ1QzEyLjYzODMgNS4zNjQ4OSAxMi42MzM1IDUuMjU3MDMgMTIuNTUxMiA1LjI0MjMyWiIvPiYjeGE7PHBhdGggZmlsbD0iIzFEMkQzRSIgZD0iTTQuNDEwMjYgMEM0LjE2MzA3IDAgMy45MjkwNiAwLjExMjg4NCAzLjc3MzI1IDAuMzA3Mjc4TDAuMTgzNTExIDQuNzg2MThDLTAuMDUyMjA1NyA1LjA4MDI4IC0wLjA2MTc4MjUgNS40OTg2NCAwLjE2MDIyMyA1LjgwMzQ5TDcuMzM5NzEgMTUuNjYyMkM3LjQ5NDM4IDE1Ljg3NDYgNy43Mzk0NSAxNiA4IDE2QzguMjYwNTUgMTYgOC41MDU2MiAxNS44NzQ2IDguNjYwMjkgMTUuNjYyMkwxNS44Mzk4IDUuODAzNDlDMTYuMDYxOCA1LjQ5ODY0IDE2LjA1MjIgNS4wODAyOCAxNS44MTY1IDQuNzg2MThMMTIuMjI2NyAwLjMwNzI3OEMxMi4wNzA5IDAuMTEyODg0IDExLjgzNjkgMCAxMS41ODk3IDBINC40MTAyNlpNMS44NTc4NyA1LjMzNDQ0TDQuODAwOTggMS42NjIzNEgxMS4xOTlMMTQuMTQyMSA1LjMzNDQ0TDggMTMuNzY4N0wxLjg1Nzg3IDUuMzM0NDRaIiBjbGlwLXJ1bGU9ImV2ZW5vZGQiIGZpbGwtcnVsZT0iZXZlbm9kZCIvPiYjeGE7PC9zdmc+;" vertex="1" parent="1">
          <mxGeometry x="-10.5" y="355.96" width="16" height="16" as="geometry" />
        </mxCell>
        <mxCell id="ipeiBuzSmVnupcLZWemS-11" value="&lt;span style=&quot;font-family: Helvetica; font-style: normal; font-variant-ligatures: normal; font-variant-caps: normal; font-weight: 700; letter-spacing: normal; orphans: 2; text-indent: 0px; text-transform: none; widows: 2; word-spacing: 0px; -webkit-text-stroke-width: 0px; text-decoration-thickness: initial; text-decoration-style: initial; text-decoration-color: initial; float: none; font-size: 10px; display: inline !important;&quot;&gt;&lt;font style=&quot;font-size: 10px;&quot;&gt;SAP Analytics Cloud&lt;/font&gt;&lt;/span&gt;" style="text;whiteSpace=wrap;html=1;align=left;container=0;verticalAlign=middle;fontColor=#1D2D3E;fontSize=10;" vertex="1" parent="1">
          <mxGeometry x="-183" y="329.5245164744882" width="102.09375000000001" height="24.57146471685887" as="geometry" />
        </mxCell>
        <mxCell id="ipeiBuzSmVnupcLZWemS-12" value="" style="shape=image;verticalLabelPosition=bottom;labelBackgroundColor=default;verticalAlign=top;aspect=fixed;imageAspect=0;image=data:image/svg+xml,PHN2ZyB4bWxucz0iaHR0cDovL3d3dy53My5vcmcvMjAwMC9zdmciIGZpbGw9Im5vbmUiIHZpZXdCb3g9IjAgMCAxNiAxNiIgaGVpZ2h0PSIxNiIgd2lkdGg9IjE2Ij4mI3hhOzxwYXRoIGZpbGw9IiMxRDJEM0UiIGQ9Ik0xMi41NTEyIDUuMjQyMzJDMTAuODU3MiA0Ljk1MzA0IDEwLjMxNTEgMy42MDQ3MiAxMC4xMzYgMi43NjE0MUMxMC4xMTY2IDIuNjc4MDYgMTAuMDEwMSAyLjY4Mjk3IDkuOTk1NjIgMi43NjYzMkM5LjcxMDA2IDQuNDgyMzYgOC4zNzkwMyA1LjAzMTQ5IDcuNTQ2NTMgNS4yMTI5QzcuNDY0MjUgNS4yMzI1MSA3LjQ2OTA5IDUuMzQwMzggNy41NTEzNyA1LjM1NTA5QzkuMjQ1NDEgNS42NDQzNiA5Ljc4NzUgNi45OTI2OCA5Ljk2NjU4IDcuODM1OTlDOS45ODU5NCA3LjkxOTM0IDEwLjA5MjQgNy45MTQ0NCAxMC4xMDY5IDcuODMxMDlDMTAuMzkyNSA2LjExNTA1IDExLjcyMzUgNS41NjU5MSAxMi41NTYgNS4zODQ1QzEyLjYzODMgNS4zNjQ4OSAxMi42MzM1IDUuMjU3MDMgMTIuNTUxMiA1LjI0MjMyWiIvPiYjeGE7PHBhdGggZmlsbD0iIzFEMkQzRSIgZD0iTTQuNDEwMjYgMEM0LjE2MzA3IDAgMy45MjkwNiAwLjExMjg4NCAzLjc3MzI1IDAuMzA3Mjc4TDAuMTgzNTExIDQuNzg2MThDLTAuMDUyMjA1NyA1LjA4MDI4IC0wLjA2MTc4MjUgNS40OTg2NCAwLjE2MDIyMyA1LjgwMzQ5TDcuMzM5NzEgMTUuNjYyMkM3LjQ5NDM4IDE1Ljg3NDYgNy43Mzk0NSAxNiA4IDE2QzguMjYwNTUgMTYgOC41MDU2MiAxNS44NzQ2IDguNjYwMjkgMTUuNjYyMkwxNS44Mzk4IDUuODAzNDlDMTYuMDYxOCA1LjQ5ODY0IDE2LjA1MjIgNS4wODAyOCAxNS44MTY1IDQuNzg2MThMMTIuMjI2NyAwLjMwNzI3OEMxMi4wNzA5IDAuMTEyODg0IDExLjgzNjkgMCAxMS41ODk3IDBINC40MTAyNlpNMS44NTc4NyA1LjMzNDQ0TDQuODAwOTggMS42NjIzNEgxMS4xOTlMMTQuMTQyMSA1LjMzNDQ0TDggMTMuNzY4N0wxLjg1Nzg3IDUuMzM0NDRaIiBjbGlwLXJ1bGU9ImV2ZW5vZGQiIGZpbGwtcnVsZT0iZXZlbm9kZCIvPiYjeGE7PC9zdmc+;" vertex="1" parent="1">
          <mxGeometry x="-10.5" y="333.81" width="16" height="16" as="geometry" />
        </mxCell>
      </root>
    </mxGraphModel>
  </diagram>
</mxfile>
